<?xml version="1.0" standalone="no"?>
<!DOCTYPE svg PUBLIC "-//W3C//DTD SVG 20010904//EN"
 "http://www.w3.org/TR/2001/REC-SVG-20010904/DTD/svg10.dtd">
<svg version="1.0" xmlns="http://www.w3.org/2000/svg"
 width="832.000000pt" height="1248.000000pt" viewBox="0 0 832.000000 1248.000000"
 preserveAspectRatio="xMidYMid meet">
<metadata>
Created by potrace 1.16, written by Peter Selinger 2001-2019
</metadata>
<g transform="translate(0.000000,1248.000000) scale(0.100000,-0.100000)"
fill="#000000" stroke="none">
<path d="M0 6240 l0 -6240 4160 0 4160 0 0 6240 0 6240 -4160 0 -4160 0 0
-6240z m4416 4566 c570 -76 1152 -329 1650 -717 302 -235 524 -506 724 -884
282 -533 499 -1236 576 -1865 21 -165 23 -489 5 -615 -14 -101 -49 -250 -81
-346 -36 -106 -144 -318 -211 -414 -77 -108 -274 -309 -385 -393 -78 -58 -82
-63 -99 -124 -60 -216 -177 -340 -305 -325 -27 3 -67 15 -89 26 l-39 21 -31
-93 c-50 -154 -121 -388 -121 -401 0 -6 30 -22 68 -34 122 -42 178 -95 208
-198 l15 -52 77 -21 c125 -34 355 -114 522 -181 190 -76 623 -287 825 -400
l149 -84 -50 -20 c-75 -30 -358 -176 -464 -241 -330 -200 -664 -488 -937 -810
-170 -200 -627 -803 -748 -987 l-37 -57 -62 -6 c-88 -10 -320 -22 -326 -17
-12 9 178 306 530 827 424 627 559 867 634 1129 24 80 47 256 34 256 -3 0 -36
-53 -73 -117 -70 -121 -238 -389 -324 -516 -185 -273 -690 -1102 -881 -1445
l-74 -132 -103 0 c-57 0 -103 3 -103 6 0 14 92 173 305 529 214 356 255 427
255 440 0 3 -16 -10 -36 -29 -33 -32 -85 -56 -121 -56 -7 0 -17 -18 -23 -41
-20 -74 -117 -145 -172 -124 -9 4 -18 -6 -27 -30 -29 -81 -110 -135 -180 -120
-24 5 -28 2 -39 -29 -25 -69 -121 -119 -189 -98 -31 10 -33 9 -55 -31 -13 -22
-39 -48 -58 -59 -39 -20 -107 -24 -144 -6 -24 10 -29 8 -61 -25 -58 -60 -141
-71 -210 -29 -30 19 -30 19 -67 -11 -29 -23 -46 -29 -86 -29 -53 0 -103 21
-125 53 -14 19 -17 20 -45 5 -68 -35 -155 -13 -216 54 -30 34 -39 38 -94 42
-80 6 -129 38 -161 107 -19 40 -29 51 -48 51 -56 0 -123 59 -148 129 -8 24
-15 51 -15 60 0 9 -20 28 -45 43 -54 33 -85 89 -85 154 0 40 -5 52 -39 89 -41
45 -63 113 -54 170 3 23 -1 36 -17 50 l-23 20 6 -220 c3 -131 12 -258 21 -313
36 -207 80 -404 127 -567 27 -95 49 -176 49 -180 0 -8 -407 -1 -415 7 -3 3
-12 55 -20 117 -52 397 -43 1020 20 1354 51 271 164 565 275 718 43 59 50 75
45 100 l-7 30 -68 -61 c-74 -65 -171 -183 -227 -276 -104 -171 -173 -361 -215
-590 -21 -117 -23 -158 -23 -424 1 -307 14 -456 75 -836 11 -68 20 -126 20
-129 0 -8 -94 -5 -108 3 -19 13 -128 348 -177 547 -75 303 -100 536 -84 769
11 171 43 365 75 466 13 41 21 76 19 78 -6 6 -504 -203 -730 -306 -213 -98
-599 -290 -724 -361 l-68 -38 -34 68 c-20 43 -29 72 -23 78 27 25 1830 939
2104 1067 80 37 149 70 154 75 4 4 -1 49 -13 100 l-22 94 -85 85 c-178 179
-291 379 -399 708 -35 104 -40 113 -59 107 -12 -4 -53 -9 -91 -12 -63 -5 -77
-2 -122 21 -100 50 -151 139 -223 386 -27 94 -52 174 -54 179 -3 5 -51 39
-106 76 -55 37 -143 108 -195 157 -281 266 -446 642 -445 1014 1 175 46 433
150 854 184 741 412 1365 599 1638 188 274 433 422 729 439 100 6 103 7 108
32 66 301 264 548 574 714 159 86 356 149 565 181 122 19 433 20 571 2z"/>
<path d="M4050 10674 c-620 -38 -1079 -329 -1191 -756 -24 -91 -30 -226 -16
-358 l8 -75 -36 50 c-21 28 -53 83 -73 123 l-36 72 -87 0 c-187 0 -349 -70
-495 -215 -108 -107 -181 -215 -269 -398 -57 -119 -168 -399 -193 -487 -5 -19
-33 -107 -61 -195 -82 -255 -238 -821 -228 -831 2 -2 40 54 84 124 57 91 81
140 86 171 5 40 16 55 121 160 l116 116 0 125 c0 113 -2 126 -22 147 -18 19
-20 27 -10 48 14 29 66 36 76 9 11 -27 7 -54 -9 -60 -12 -5 -15 -30 -15 -142
l0 -135 -119 -122 c-103 -105 -119 -126 -123 -160 -3 -22 -42 -125 -87 -230
-184 -425 -201 -488 -201 -720 0 -200 37 -355 133 -559 l42 -89 -3 194 c-2
111 1 209 6 229 l10 35 1 -34 c2 -76 34 -248 61 -332 17 -50 53 -136 82 -192
42 -82 69 -119 140 -191 48 -50 89 -88 91 -86 2 3 -6 73 -18 156 -13 82 -29
225 -35 317 -7 92 -14 166 -16 165 -4 -5 -64 -239 -64 -252 0 -6 10 -16 23
-21 45 -20 25 -80 -25 -73 -20 3 -24 10 -29 63 -4 33 -7 99 -8 146 -2 134 22
197 163 432 73 122 129 228 159 299 14 34 10 31 -51 -34 -37 -39 -129 -124
-205 -190 -131 -112 -137 -116 -116 -76 74 147 195 328 385 574 172 223 256
358 318 509 15 37 11 34 -55 -40 -40 -44 -109 -115 -153 -157 -95 -89 -329
-288 -335 -282 -2 2 25 38 61 81 98 120 239 309 300 403 101 155 151 272 198
466 39 156 76 276 101 327 11 20 17 37 15 37 -15 0 -133 -78 -201 -134 -69
-55 -128 -118 -215 -226 -18 -22 -18 -20 3 25 70 151 127 242 213 334 135 146
281 221 474 246 l55 7 -72 -66 c-169 -157 -255 -367 -288 -699 -29 -307 -36
-356 -59 -440 l-23 -85 61 28 c93 42 200 76 316 102 143 31 447 33 585 4 206
-43 344 -115 469 -245 76 -79 84 -80 112 -12 25 60 64 231 71 316 9 109 21 64
22 -85 1 -145 -11 -228 -51 -347 -21 -63 -28 -97 -21 -104 7 -7 43 -2 109 17
83 22 112 26 179 21 44 -3 102 -13 128 -22 59 -20 72 -12 34 21 -34 29 -115
54 -181 55 -72 1 -32 15 68 24 l78 8 -7 56 c-13 105 -22 296 -16 346 l6 50 12
-76 c25 -155 80 -289 120 -289 9 0 52 35 97 78 98 94 152 132 261 183 148 70
370 115 501 102 l59 -6 -45 39 c-275 237 -494 500 -922 1105 -45 64 -49 67
-125 92 -182 60 -270 72 -510 72 l-221 0 16 29 c25 42 118 124 174 152 69 35
188 64 267 65 102 1 44 17 -65 18 -105 1 -219 -24 -293 -65 -69 -37 -147 -108
-178 -162 -33 -57 -39 -62 -80 -62 l-31 0 14 60 c22 97 88 216 158 286 61 61
174 126 244 140 46 9 40 21 -20 39 -145 44 -239 26 -327 -63 -101 -103 -163
-241 -182 -402 -14 -118 -31 -127 -58 -31 -83 289 115 642 374 667 163 15 425
-115 621 -310 95 -95 245 -279 351 -432 35 -49 107 -152 160 -229 370 -530
678 -843 1044 -1059 128 -76 375 -185 545 -241 218 -72 554 -135 729 -135 95
-1 86 -8 -45 -41 -85 -21 -117 -24 -303 -24 l-209 0 39 -33 c21 -19 85 -70
143 -114 58 -44 183 -143 278 -221 l172 -142 -2 -64 c-2 -41 -8 -66 -15 -69
-10 -3 -13 14 -13 60 0 57 -3 67 -27 90 -16 14 -71 43 -123 63 -97 39 -314
145 -430 211 l-65 37 54 -49 c93 -84 230 -244 306 -359 153 -228 208 -392 247
-734 2 -19 15 -2 55 75 55 107 101 228 133 355 69 268 67 624 -5 1014 l-26
140 -245 246 -244 246 0 99 0 99 -120 124 -120 124 0 66 0 66 -87 87 -88 88
-112 0 c-142 0 -143 1 -143 146 l0 102 -37 33 -38 33 -3 -144 -3 -144 63 -63
62 -63 91 0 91 0 67 -68 67 -68 0 -58 0 -58 76 -84 c42 -46 84 -84 94 -84 20
0 50 -30 50 -51 0 -37 -55 -52 -84 -23 -10 10 -14 24 -10 40 5 19 -8 38 -75
111 l-81 88 0 60 c0 60 0 61 -58 118 l-58 57 -90 0 -90 0 -67 68 -67 68 0 154
-1 155 -127 132 c-101 106 -131 132 -147 127 -27 -7 -58 27 -53 57 5 35 51 49
78 24 14 -13 19 -26 16 -41 -5 -18 26 -54 179 -207 l185 -184 0 -100 c0 -83 3
-102 16 -107 9 -3 62 -6 119 -6 l104 0 95 -97 95 -98 1 -66 0 -66 115 -120
115 -121 0 -95 0 -96 225 -226 c137 -137 225 -219 225 -208 0 10 -15 80 -34
156 l-33 139 -147 147 c-131 133 -146 151 -146 182 0 31 -13 48 -125 159
l-125 125 0 133 0 133 -72 80 c-40 43 -80 79 -89 79 -21 0 -39 20 -39 45 0 27
18 45 46 45 30 0 48 -25 41 -59 -5 -25 3 -38 64 -104 l69 -75 0 -132 0 -133
130 -132 c115 -117 130 -136 130 -166 0 -31 14 -48 121 -154 l121 -120 -7 40
c-10 61 -105 342 -170 505 -142 357 -309 662 -486 885 -82 105 -302 323 -409
406 -224 174 -602 391 -879 504 -342 139 -748 216 -1041 199z m664 -380 c9 -8
16 -22 16 -29 0 -19 -28 -45 -49 -45 -39 0 -57 60 -23 79 24 15 38 13 56 -5z
m-834 -78 l65 -14 -133 -1 c-77 0 -165 -8 -210 -17 -324 -66 -547 -292 -592
-601 -10 -67 -9 -99 4 -186 8 -57 24 -132 35 -165 12 -34 21 -65 21 -69 0 -20
-97 150 -118 207 -33 90 -40 222 -18 324 29 127 85 227 185 327 47 47 111 99
141 117 72 40 191 80 277 91 82 12 253 5 343 -13z m531 -353 c241 -122 388
-233 606 -457 l143 -146 123 0 c118 0 125 1 146 24 l23 25 -48 57 c-27 31 -73
78 -102 104 -33 30 -51 53 -47 60 5 8 23 -7 53 -42 26 -29 73 -81 106 -115
l59 -63 71 0 72 0 48 -49 c41 -41 54 -49 76 -45 33 7 53 -15 48 -53 -2 -22 -9
-29 -31 -31 -34 -4 -57 13 -57 41 0 12 -21 43 -47 69 l-47 48 -71 0 c-63 0
-74 -3 -95 -25 -22 -23 -30 -25 -144 -27 l-121 -3 245 -245 c349 -350 654
-587 995 -774 161 -88 161 -88 75 -64 -398 108 -784 383 -1184 843 -480 553
-680 738 -961 887 -136 72 -87 58 66 -19z m1156 -108 c2 -6 -26 -9 -74 -8 -43
1 -109 3 -148 4 -58 1 -64 3 -35 9 51 11 253 7 257 -5z m515 -52 c25 -22 23
-50 -6 -68 -46 -31 -97 25 -60 66 21 23 42 24 66 2z m108 -253 c11 -11 20 -24
20 -29 0 -4 -9 -20 -20 -34 -16 -20 -20 -40 -20 -106 0 -61 4 -83 14 -87 21
-8 28 -32 15 -55 -8 -15 -19 -19 -42 -17 -38 4 -48 35 -23 73 24 37 22 155 -4
188 -24 31 -25 45 -3 69 21 23 38 23 63 -2z m-3477 -229 c62 -22 141 -61 192
-95 34 -23 35 -25 16 -35 -15 -9 -43 -3 -128 26 -100 35 -117 38 -223 38 -128
0 -174 -11 -295 -73 -51 -26 -96 -61 -163 -128 -93 -94 -99 -93 -32 6 102 150
264 261 415 284 51 7 163 -4 218 -23z m3137 -948 c69 -49 185 -133 259 -186
l133 -97 167 0 167 0 57 -58 c50 -50 62 -58 88 -54 56 8 80 -43 34 -74 -31
-20 -52 -13 -66 23 -5 15 -36 52 -67 82 l-57 54 -135 -2 c-74 -1 -135 -3 -137
-5 -3 -3 141 -109 252 -184 l90 -62 157 -4 c127 -3 159 -1 169 10 18 21 66 18
79 -6 27 -50 -36 -95 -71 -52 -16 21 -26 22 -171 22 l-154 0 -129 59 c-269
121 -422 228 -662 465 -216 212 -217 221 -3 69z m-2245 38 l50 -7 -40 -7 c-22
-3 -76 -9 -120 -12 -165 -13 -593 -100 -707 -144 -16 -6 -28 -8 -28 -5 0 10
188 93 268 118 79 25 205 52 272 59 63 7 254 5 305 -2z m-1865 -457 c0 -4 -20
-29 -45 -55 -44 -47 -45 -50 -45 -114 l0 -65 -47 2 c-44 1 -45 2 -10 5 l37 4
0 59 c0 57 2 62 48 114 44 51 62 65 62 50z m5148 -426 c7 -7 12 -21 12 -33 0
-12 -5 -26 -12 -33 -7 -7 -21 -12 -33 -12 -12 0 -26 5 -33 12 -7 7 -12 21 -12
33 0 12 5 26 12 33 7 7 21 12 33 12 12 0 26 -5 33 -12z m190 -220 c7 -7 12
-21 12 -33 0 -12 -5 -26 -12 -33 -7 -7 -21 -12 -33 -12 -12 0 -26 5 -33 12 -7
7 -12 21 -12 33 0 12 5 26 12 33 7 7 21 12 33 12 12 0 26 -5 33 -12z m-63
-430 c0 -26 5 -33 25 -39 22 -6 23 -7 7 -14 -28 -12 -62 26 -53 59 9 36 21 33
21 -6z"/>
<path d="M4664 10275 c-4 -9 -2 -21 4 -27 15 -15 44 -1 40 19 -4 23 -36 29
-44 8z"/>
<path d="M5733 9184 c-9 -23 11 -38 26 -20 13 16 7 36 -10 36 -5 0 -12 -7 -16
-16z"/>
<path d="M6030 9669 c0 -25 33 -22 38 4 2 12 -3 17 -17 17 -15 0 -21 -6 -21
-21z"/>
<path d="M6137 9426 c-7 -18 1 -26 25 -26 11 0 18 7 18 20 0 23 -35 28 -43 6z"/>
<path d="M6145 9170 c-8 -14 3 -30 21 -30 8 0 14 9 14 20 0 21 -24 28 -35 10z"/>
<path d="M6717 7853 c-14 -13 -6 -33 13 -33 13 0 20 7 20 20 0 19 -20 27 -33
13z"/>
<path d="M6980 7691 c0 -19 23 -35 34 -24 14 15 5 43 -14 43 -13 0 -20 -7 -20
-19z"/>
<path d="M6834 7405 c-4 -9 -2 -21 4 -27 15 -15 44 -1 40 19 -4 23 -36 29 -44
8z"/>
<path d="M7024 7185 c-4 -9 -2 -21 4 -27 15 -15 44 -1 40 19 -4 23 -36 29 -44
8z"/>
<path d="M5586 9601 c-10 -16 6 -42 23 -39 9 2 17 13 19 26 3 16 -2 22 -17 22
-11 0 -22 -4 -25 -9z"/>
<path d="M6343 9174 c-3 -8 -1 -20 6 -27 14 -14 47 15 37 32 -10 16 -36 13
-43 -5z"/>
<path d="M1767 8486 c-7 -18 1 -26 25 -26 11 0 18 7 18 20 0 23 -35 28 -43 6z"/>
<path d="M6503 8404 c-8 -21 13 -42 28 -27 13 13 5 43 -11 43 -6 0 -13 -7 -17
-16z"/>
<path d="M5150 7794 c-247 -31 -429 -105 -549 -223 -36 -36 -75 -82 -85 -101
l-19 -35 44 42 c101 95 249 167 428 210 87 20 141 26 300 30 266 8 423 -18
598 -97 36 -17 68 -29 70 -26 10 10 -89 83 -151 111 -130 60 -260 86 -441 90
-88 2 -176 1 -195 -1z"/>
<path d="M2860 7749 c-199 -13 -386 -77 -493 -170 -56 -48 -56 -62 0 -25 41
27 184 76 298 102 94 21 435 31 547 15 185 -27 338 -83 471 -175 82 -56 76
-35 -15 54 -103 100 -224 151 -438 184 -123 19 -239 24 -370 15z"/>
<path d="M5165 7630 c-268 -23 -452 -93 -568 -219 -79 -84 -92 -124 -92 -271
1 -115 3 -131 32 -208 76 -200 206 -343 399 -440 197 -99 458 -96 669 8 285
141 440 426 406 745 -19 178 -58 247 -166 296 -89 40 -254 78 -390 89 -132 11
-158 11 -290 0z m54 -65 c153 -38 270 -89 249 -110 -2 -2 -33 5 -68 16 -40 13
-106 23 -172 26 -172 9 -311 -21 -428 -92 -57 -35 -145 -114 -136 -123 3 -2
51 17 106 43 91 42 111 48 189 53 139 7 309 -46 455 -143 l56 -37 0 -83 0 -83
-47 5 c-69 7 -71 8 -40 25 l29 14 -56 43 c-54 40 -76 45 -76 17 0 -7 -9 -25
-20 -38 -18 -24 -24 -25 -97 -22 -90 4 -157 13 -149 22 3 3 1 11 -6 19 -8 10
-8 12 4 8 19 -7 42 20 34 40 -7 20 -45 19 -53 -1 -5 -13 -7 -13 -14 -2 -6 9
-9 4 -9 -16 0 -16 7 -38 17 -48 14 -16 14 -18 0 -18 -19 0 -57 46 -57 71 0 34
-20 30 -96 -16 -68 -41 -82 -46 -128 -43 l-51 3 112 99 c62 55 111 102 108
104 -7 7 -109 -30 -165 -60 -30 -17 -84 -53 -119 -81 l-64 -51 8 70 c11 106
38 166 102 229 85 83 216 143 378 173 78 15 95 14 204 -13z m344 -143 c22 -13
37 -26 34 -28 -9 -9 -97 40 -97 54 0 14 0 14 63 -26z m30 -319 c45 -36 84 -68
86 -70 2 -2 -37 -3 -87 -3 l-92 0 0 70 c0 39 2 70 5 70 3 0 43 -30 88 -67z
m-1009 -88 c21 -38 28 -59 17 -45 -11 14 -21 29 -21 34 0 4 -6 6 -14 3 -13 -5
-26 30 -26 71 0 20 0 20 44 -63z m990 -24 c3 -4 -12 -15 -34 -24 -40 -15 -40
-15 -40 9 0 21 5 24 34 24 19 0 37 -4 40 -9z m-1007 -23 c-3 -8 -6 -5 -6 6 -1
11 2 17 5 13 3 -3 4 -12 1 -19z m343 -90 c0 -5 -9 -4 -20 2 -11 6 -20 12 -20
14 0 2 9 2 20 -1 11 -3 20 -9 20 -15z m64 -7 c7 -11 -14 -20 -31 -13 -7 2 -13
8 -13 13 0 12 37 12 44 0z m66 -11 c0 -5 -2 -10 -4 -10 -3 0 -8 5 -11 10 -3 6
-1 10 4 10 6 0 11 -4 11 -10z m68 -7 c-10 -2 -26 -2 -35 0 -10 3 -2 5 17 5 19
0 27 -2 18 -5z m145 -10 c3 -5 -16 -7 -41 -5 -73 5 -82 10 -20 11 31 0 59 -2
61 -6z m94 -9 c-3 -3 -12 -4 -19 -1 -8 3 -5 6 6 6 11 1 17 -2 13 -5z m-180
-30 c-3 -3 -12 -4 -19 -1 -8 3 -5 6 6 6 11 1 17 -2 13 -5z"/>
<path d="M5365 7170 c-9 -15 4 -30 26 -30 12 0 19 7 19 20 0 21 -33 29 -45 10z"/>
<path d="M2835 7590 c-131 -9 -265 -40 -337 -76 -168 -84 -230 -267 -182 -538
28 -162 89 -274 212 -387 88 -81 159 -123 269 -162 158 -54 370 -48 524 15
215 88 405 293 463 498 109 390 -158 628 -734 654 -58 2 -154 1 -215 -4z m325
-93 l0 -54 -66 -12 c-36 -6 -88 -20 -116 -31 -49 -18 -49 -18 -46 2 2 14 32
36 103 73 55 30 105 58 110 64 6 5 11 10 13 11 1 0 2 -24 2 -53z m116 42 c32
-5 74 -15 92 -20 31 -10 32 -13 32 -61 0 -48 -1 -50 -22 -43 -13 3 -58 12
-100 18 l-76 11 -4 53 c-3 59 -7 57 78 42z m234 -74 c39 -19 70 -38 70 -40 0
-3 -18 4 -40 15 -49 25 -57 25 -70 0 -9 -16 -8 -18 5 -14 9 4 15 3 14 -2 -4
-26 9 -38 89 -78 48 -25 83 -45 79 -45 -4 -1 -31 11 -60 26 -29 14 -77 36
-107 49 l-55 22 -1 51 c0 28 1 51 3 51 2 0 35 -16 73 -35z m-610 -82 c0 -10
-17 -28 -39 -40 -21 -12 -65 -45 -97 -74 -33 -28 -18 -11 33 40 51 50 94 91
97 91 4 0 6 -8 6 -17z m750 -8 c13 -14 21 -25 18 -25 -2 0 -15 11 -28 25 -13
14 -21 25 -18 25 2 0 15 -11 28 -25z m86 -97 c17 -33 9 -35 -26 -8 -15 12 -18
18 -7 14 23 -8 21 5 -5 35 l-23 26 24 -20 c12 -11 29 -32 37 -47z m-293 37
c32 -8 79 -26 105 -39 53 -27 164 -107 158 -114 -3 -2 -33 5 -68 16 -35 12
-81 25 -103 31 l-39 11 79 -80 c94 -94 85 -100 -49 -37 -51 24 -104 47 -119
51 -24 6 -27 4 -27 -21 0 -16 -8 -41 -18 -57 -16 -27 -22 -29 -94 -32 l-76 -4
-4 41 c-3 28 1 43 11 49 12 7 13 13 3 35 -7 14 -12 55 -12 90 l0 64 33 4 c75
9 167 6 220 -8z m-273 -70 c0 -37 -4 -65 -10 -65 -14 0 -13 -43 1 -57 7 -7 9
-25 5 -47 -7 -35 -8 -36 -54 -36 -42 1 -50 4 -72 34 l-24 33 -33 -21 c-18 -11
-35 -29 -39 -38 -3 -10 -10 -18 -15 -18 -6 0 -9 35 -7 86 3 102 4 103 133 159
113 49 115 49 115 -30z m-270 -140 l0 -75 -91 0 c-60 0 -88 3 -84 10 10 17
157 140 167 140 4 0 8 -34 8 -75z m-80 -124 c0 -11 2 -26 6 -34 4 -11 -7 -16
-43 -21 -26 -3 -77 -15 -111 -26 -79 -25 -110 -27 -92 -5 7 8 17 12 23 8 6 -4
8 2 5 15 -5 17 3 28 35 52 36 26 49 30 109 30 60 0 68 -2 68 -19z m340 -191
c0 -29 -1 -30 -47 -28 l-48 1 43 4 c37 4 42 7 42 29 0 13 2 24 5 24 3 0 5 -13
5 -30z"/>
<path d="M6057 7462 c-24 -26 -22 -79 2 -92 32 -17 177 -13 195 6 23 22 20 60
-6 84 -30 28 -166 30 -191 2z"/>
<path d="M2090 7423 c-56 -11 -80 -72 -42 -106 23 -21 169 -24 195 -4 26 20
31 60 9 87 -16 19 -30 24 -78 26 -32 1 -70 0 -84 -3z"/>
<path d="M4072 7249 c-51 -12 -118 -72 -127 -114 -66 -299 -148 -461 -314
-617 -158 -150 -347 -226 -582 -235 -173 -7 -255 9 -394 77 -182 90 -293 202
-393 399 -59 116 -60 117 -66 82 -17 -103 2 -330 45 -551 56 -285 244 -1053
299 -1223 121 -372 250 -578 446 -713 55 -38 163 -79 234 -88 45 -6 45 -6 20
10 -50 34 -176 172 -202 223 -16 28 -25 51 -22 51 3 0 34 -22 68 -49 73 -57
145 -105 150 -100 2 2 0 30 -5 63 -5 32 -8 61 -5 63 2 2 38 -40 79 -94 158
-206 278 -288 502 -340 126 -29 452 -26 599 5 363 78 579 228 702 487 63 133
74 188 74 366 0 104 5 182 17 238 16 81 16 84 -2 97 -25 19 -99 18 -166 -2
-30 -9 -122 -52 -205 -95 -175 -92 -227 -111 -378 -141 -145 -28 -399 -30
-521 -4 -98 22 -226 70 -257 97 -13 11 -18 18 -12 15 32 -16 173 -37 305 -47
277 -19 548 20 744 108 l40 18 -140 9 c-113 7 -162 6 -260 -8 -136 -19 -212
-20 -270 -5 -22 5 -146 14 -275 19 -129 4 -287 16 -350 25 -118 17 -179 14
-216 -10 -19 -12 -20 -18 -12 -77 11 -74 4 -177 -18 -268 -18 -72 -65 -184
-83 -194 -14 -9 -14 -9 5 104 22 129 22 326 0 409 -9 36 -19 67 -21 70 -9 8
-48 -34 -97 -106 -27 -40 -50 -73 -52 -73 -1 0 4 30 11 67 8 37 13 87 11 112
-3 45 -4 46 -38 49 -19 1 -61 9 -93 18 -33 8 -61 13 -65 10 -11 -11 17 -199
48 -325 17 -68 29 -126 27 -128 -7 -7 -65 132 -96 228 -35 112 -67 264 -77
366 l-6 72 38 6 c136 21 258 71 359 148 76 57 286 272 388 397 86 104 151 163
212 191 64 29 65 23 5 -39 -40 -41 -60 -71 -69 -105 -20 -69 -9 -151 26 -201
36 -51 47 -54 58 -14 13 44 68 72 121 62 20 -4 71 -30 113 -59 70 -47 141 -82
141 -68 0 3 -19 22 -42 43 -38 33 -104 129 -82 118 125 -60 173 -68 259 -44
96 28 199 106 236 177 24 49 24 101 -1 200 -46 178 -82 394 -110 659 -12 112
-24 136 -82 166 -36 19 -124 25 -176 13z m406 -2444 c61 -15 220 -81 211 -89
-2 -2 -60 6 -129 17 -96 15 -176 20 -345 20 -206 1 -295 -7 -435 -38 -42 -10
59 42 128 66 115 39 196 49 357 44 87 -2 176 -10 213 -20z"/>
<path d="M6400 6933 c0 -7 74 -91 165 -188 l165 -175 0 -237 c0 -227 -1 -239
-20 -251 -22 -14 -26 -42 -8 -60 38 -38 100 17 65 56 -15 16 -17 45 -17 194 0
96 -3 208 -6 249 l-7 74 -168 175 c-93 96 -169 169 -169 163z m350 -889 c0 -8
-7 -14 -15 -14 -15 0 -21 21 -9 33 10 9 24 -2 24 -19z"/>
<path d="M6022 6739 c-61 -120 -167 -229 -296 -304 -49 -28 -49 -29 -23 -36
14 -4 89 -10 165 -14 l138 -7 17 77 c21 95 39 257 35 310 l-3 40 -33 -66z"/>
<path d="M4556 6605 c3 -33 13 -86 22 -118 15 -52 24 -63 100 -130 48 -41 140
-140 213 -229 199 -242 307 -342 450 -413 105 -53 123 -53 199 -4 36 23 99 76
141 118 111 112 269 355 237 366 -71 23 -323 63 -640 100 -264 31 -423 91
-568 217 -47 40 -102 91 -123 113 l-37 40 6 -60z"/>
<path d="M6828 6643 c18 -34 16 -284 -3 -309 -28 -38 -7 -82 34 -69 29 9 34
35 11 60 -18 19 -20 34 -20 167 0 124 -3 148 -17 159 -15 13 -15 12 -5 -8z
m32 -343 c0 -11 -4 -20 -10 -20 -5 0 -10 9 -10 20 0 11 5 20 10 20 6 0 10 -9
10 -20z"/>
<path d="M6411 6508 c-2 -123 -61 -442 -92 -500 -8 -14 -8 -18 0 -14 24 15 91
145 107 206 13 51 15 90 11 180 -3 63 -10 129 -16 145 -9 28 -9 28 -10 -17z"/>
<path d="M4572 6308 c-5 -7 -13 -31 -16 -53 -4 -23 -22 -72 -41 -110 -18 -39
-32 -71 -30 -73 2 -2 36 -12 76 -22 83 -21 100 -17 126 33 40 79 8 203 -59
226 -39 14 -43 14 -56 -1z"/>
<path d="M1692 6248 c-8 -8 -8 -15 -1 -24 14 -17 39 -6 39 17 0 21 -20 25 -38
7z"/>
<path d="M1956 6103 c-21 -75 -17 -102 54 -389 76 -310 104 -384 154 -415 74
-45 153 -5 163 83 6 49 -26 253 -64 407 -28 117 -81 261 -96 261 -5 0 -7 -10
-4 -22 3 -13 8 -63 12 -113 l7 -90 -60 65 c-34 36 -82 102 -108 148 -25 45
-48 82 -50 82 -1 0 -5 -8 -8 -17z"/>
<path d="M6472 5926 c-50 -105 -107 -225 -126 -266 l-33 -75 -7 59 c-4 32 -11
54 -16 50 -16 -18 -71 -200 -77 -254 -7 -71 13 -115 63 -136 32 -14 39 -13 72
3 52 26 91 110 148 323 26 96 58 216 71 265 24 89 27 174 6 208 -5 9 -37 -47
-101 -177z"/>
<path d="M3524 6003 c-17 -21 -44 -58 -61 -83 -33 -49 -273 -504 -273 -519 0
-4 44 -19 98 -32 118 -29 314 -32 457 -6 171 31 230 31 324 3 47 -14 94 -26
106 -26 12 0 61 14 111 31 99 34 65 33 539 13 244 -11 341 15 339 87 -1 50
-306 538 -336 539 -5 0 -8 -17 -8 -38 0 -103 -66 -259 -135 -320 -58 -51 -126
-72 -230 -72 -150 0 -236 39 -383 172 -113 103 -159 126 -274 139 -51 6 -106
16 -123 23 -43 18 -96 65 -110 98 l-11 28 -30 -37z"/>
<path d="M5812 5478 c-6 -18 -32 -105 -57 -193 -139 -478 -219 -664 -362 -837
-35 -43 -61 -78 -58 -78 31 0 190 108 247 167 84 87 152 239 187 413 20 104
66 548 58 557 -3 2 -10 -11 -15 -29z"/>
<path d="M5656 5443 c-40 -21 -145 -28 -202 -14 -25 7 -48 10 -50 9 -1 -2 15
-38 36 -81 21 -42 35 -77 30 -77 -5 0 -39 28 -75 61 -47 44 -65 56 -65 43 0
-10 -20 -61 -45 -115 -28 -60 -52 -130 -62 -182 -18 -93 -20 -75 36 -337 12
-52 24 -138 27 -192 l7 -96 44 51 c89 105 198 327 262 533 37 120 93 369 89
394 -3 17 -5 17 -32 3z"/>
<path d="M6062 4478 c-7 -7 -12 -22 -12 -34 0 -19 5 -22 38 -21 20 1 47 -2 60
-6 18 -7 22 -5 22 11 0 44 -78 80 -108 50z"/>
<path d="M6092 4383 c-28 -5 -56 -47 -48 -69 5 -13 15 -15 47 -10 30 5 48 2
66 -9 39 -26 55 -2 32 48 -10 23 -49 49 -67 46 -4 -1 -17 -4 -30 -6z"/>
<path d="M6062 4237 c-12 -13 -22 -35 -22 -50 0 -25 3 -27 43 -27 24 0 52 -7
63 -15 29 -22 42 -18 49 14 7 33 -15 85 -40 95 -34 13 -72 6 -93 -17z"/>
<path d="M3127 3859 c77 -308 129 -579 138 -719 l6 -85 -24 60 c-57 144 -73
152 -63 33 20 -232 20 -232 50 -282 22 -37 30 -62 30 -102 1 -45 5 -55 29 -74
37 -29 57 -71 57 -120 0 -34 4 -42 24 -50 43 -16 95 -70 107 -111 9 -29 18
-39 33 -39 41 -1 106 -38 127 -74 18 -31 23 -34 54 -29 52 8 102 -5 138 -37
29 -25 34 -27 52 -14 32 24 117 18 160 -12 37 -25 38 -25 59 -6 47 43 108 54
161 30 24 -11 29 -9 51 19 32 42 100 67 156 59 40 -5 44 -3 63 26 33 51 68 71
135 76 40 3 60 9 60 17 0 20 48 74 81 90 15 8 44 15 63 15 33 0 36 3 46 42 15
53 60 95 117 109 68 18 79 56 48 166 l-17 62 -120 -80 c-65 -44 -125 -82 -132
-85 -36 -14 -57 618 -28 836 15 112 51 314 59 338 3 9 -13 -1 -37 -23 -86 -82
-170 -232 -210 -376 -42 -156 -62 -438 -40 -573 5 -33 8 -61 6 -63 -10 -11
-71 190 -99 328 -19 97 -36 159 -44 159 -21 0 -158 -98 -219 -158 -79 -77
-140 -175 -213 -344 -67 -156 -117 -234 -193 -304 -55 -49 -123 -92 -132 -83
-3 3 5 48 19 100 63 249 110 567 126 839 12 217 2 394 -25 435 -18 27 -151
121 -244 172 l-63 35 22 -53 c46 -113 69 -182 84 -247 15 -68 35 -225 27 -217
-2 2 -19 37 -36 77 -93 215 -233 371 -428 481 -47 26 -87 47 -89 47 -2 0 28
-131 68 -291z"/>
<path d="M6035 4085 c-42 -41 -30 -59 59 -89 l67 -23 16 23 c19 30 9 79 -20
99 -34 24 -94 19 -122 -10z"/>
<path d="M5991 3934 c-36 -46 -29 -58 58 -104 l63 -34 24 28 c26 30 29 42 14
80 -11 31 -58 56 -104 56 -25 0 -40 -7 -55 -26z"/>
<path d="M5953 3800 c-32 -13 -56 -55 -49 -85 5 -18 23 -33 66 -55 71 -36 80
-37 108 -7 67 71 -30 185 -125 147z"/>
<path d="M3001 3724 c-24 -31 -25 -33 -11 -68 9 -25 74 -66 85 -54 6 6 -33
129 -45 141 -4 5 -17 -4 -29 -19z"/>
<path d="M5880 3633 c-32 -12 -50 -37 -50 -69 0 -36 27 -61 96 -90 35 -15 39
-14 63 4 40 29 41 89 3 125 -29 27 -83 42 -112 30z"/>
<path d="M2963 3550 c-39 -23 -49 -56 -33 -104 14 -45 44 -66 90 -66 53 0 85
37 84 96 -2 84 -69 119 -141 74z"/>
<path d="M5755 3445 c-27 -26 -33 -71 -12 -97 20 -26 80 -58 109 -58 40 0 57
10 73 41 23 43 18 68 -19 105 -29 29 -41 34 -80 34 -36 0 -52 -6 -71 -25z"/>
<path d="M2929 3321 c-33 -34 -38 -75 -14 -121 20 -38 43 -50 99 -50 96 0 129
99 56 171 -40 41 -100 41 -141 0z"/>
<path d="M5663 3294 c-39 -19 -60 -65 -47 -102 10 -29 74 -77 117 -87 21 -6
32 -1 57 23 52 52 34 129 -40 167 -36 19 -47 18 -87 -1z"/>
<path d="M5535 3129 c-35 -20 -55 -53 -55 -91 0 -31 7 -42 42 -72 54 -47 97
-49 139 -7 21 22 29 39 29 65 0 72 -97 138 -155 105z"/>
<path d="M2952 3095 c-73 -61 -34 -175 61 -175 52 0 84 21 103 67 13 30 13 38
-2 69 -9 19 -26 41 -38 49 -33 23 -90 19 -124 -10z"/>
<path d="M5374 2951 c-36 -22 -58 -75 -48 -115 10 -40 68 -86 109 -86 73 0
124 83 91 148 -35 68 -94 88 -152 53z"/>
<path d="M3032 2883 c-57 -28 -77 -94 -47 -153 18 -35 43 -50 84 -50 68 0 114
45 113 111 -1 51 -17 78 -57 95 -43 18 -52 17 -93 -3z"/>
<path d="M5192 2765 c-41 -34 -47 -66 -23 -120 20 -46 61 -75 105 -75 35 0 84
45 92 85 8 43 0 67 -36 104 -37 41 -94 43 -138 6z"/>
<path d="M3133 2665 c-42 -18 -68 -59 -68 -108 0 -86 118 -132 177 -69 34 36
41 63 28 112 -16 61 -78 90 -137 65z"/>
<path d="M5009 2591 c-81 -81 15 -225 121 -181 74 30 80 142 12 198 -9 6 -36
12 -60 12 -35 0 -49 -6 -73 -29z"/>
<path d="M3239 2442 c-24 -21 -32 -38 -36 -75 -5 -43 -3 -49 30 -82 45 -45 99
-49 146 -9 28 23 31 32 31 81 0 47 -4 59 -29 84 -40 40 -98 41 -142 1z"/>
<path d="M4844 2460 c-32 -13 -64 -59 -64 -92 0 -101 113 -157 181 -89 24 24
29 38 29 76 0 40 -5 52 -34 81 -35 35 -68 42 -112 24z"/>
<path d="M4634 2335 c-42 -17 -64 -51 -64 -98 0 -83 56 -130 129 -108 49 14
71 48 71 105 0 79 -69 130 -136 101z"/>
<path d="M3454 2300 c-38 -15 -64 -59 -64 -107 0 -24 5 -53 10 -64 23 -41 106
-62 152 -38 24 13 48 67 48 108 0 82 -71 131 -146 101z"/>
<path d="M4369 2211 c-53 -54 -32 -158 38 -187 93 -39 176 62 131 161 -27 60
-120 74 -169 26z"/>
<path d="M3669 2195 c-27 -14 -59 -69 -59 -99 0 -35 30 -85 59 -100 44 -23 77
-20 112 12 25 23 33 38 36 79 6 61 -8 90 -52 109 -42 17 -63 17 -96 -1z"/>
<path d="M4164 2170 c-12 -4 -31 -21 -44 -37 -18 -23 -21 -37 -17 -76 7 -82
69 -123 138 -94 45 18 60 38 66 85 12 92 -62 155 -143 122z"/>
<path d="M3904 2152 c-63 -40 -71 -134 -14 -184 80 -72 196 8 174 120 -14 68
-99 102 -160 64z"/>
</g>
</svg>
