<?xml version="1.0" standalone="no"?>
<!DOCTYPE svg PUBLIC "-//W3C//DTD SVG 20010904//EN"
 "http://www.w3.org/TR/2001/REC-SVG-20010904/DTD/svg10.dtd">
<svg version="1.0" xmlns="http://www.w3.org/2000/svg"
 width="832.000000pt" height="1248.000000pt" viewBox="0 0 832.000000 1248.000000"
 preserveAspectRatio="xMidYMid meet">
<metadata>
Created by potrace 1.16, written by Peter Selinger 2001-2019
</metadata>
<g transform="translate(0.000000,1248.000000) scale(0.100000,-0.100000)"
fill="#000000" stroke="none">
<path d="M0 6240 l0 -6240 4160 0 4160 0 0 6240 0 6240 -4160 0 -4160 0 0
-6240z m4460 4565 c63 -8 129 -18 145 -21 591 -115 1094 -351 1535 -723 81
-68 267 -254 341 -341 431 -506 751 -1235 866 -1970 25 -162 26 -620 1 -765
-24 -134 -72 -329 -98 -396 -12 -29 -29 -74 -37 -99 -25 -74 -119 -251 -191
-359 -84 -127 -186 -249 -274 -326 -37 -33 -72 -71 -77 -85 -5 -14 -28 -95
-51 -180 -50 -191 -102 -302 -166 -359 -81 -71 -154 -78 -275 -27 -19 8 -39
-46 -119 -321 -48 -164 -48 -164 -23 -174 13 -5 28 -9 33 -9 22 0 118 -53 149
-82 34 -32 81 -119 81 -150 0 -13 19 -23 73 -38 360 -106 625 -215 1082 -445
286 -145 401 -213 383 -230 -7 -7 -76 -45 -152 -85 -214 -110 -309 -165 -456
-263 -353 -236 -594 -463 -921 -867 -119 -148 -209 -266 -531 -701 -169 -228
-126 -204 -387 -215 -155 -7 -155 -7 -126 42 95 163 320 504 633 959 255 372
436 703 501 920 20 65 54 265 48 272 -2 2 -27 -39 -55 -90 -50 -90 -172 -284
-382 -606 -58 -89 -140 -216 -184 -284 -92 -142 -549 -903 -655 -1090 -72
-127 -72 -127 -177 -127 -72 0 -104 4 -104 12 0 19 70 141 305 533 122 204
228 381 235 395 13 25 13 25 -16 -1 -38 -35 -67 -49 -99 -49 -15 0 -28 -7 -32
-17 -32 -97 -79 -144 -152 -151 -44 -4 -47 -6 -67 -52 -30 -65 -85 -102 -154
-102 -35 0 -50 -4 -50 -14 0 -19 -58 -82 -92 -100 -19 -10 -50 -14 -86 -13
-41 2 -57 -1 -61 -12 -33 -81 -123 -118 -210 -88 -30 11 -35 9 -64 -19 -18
-16 -42 -35 -54 -41 -34 -17 -110 -13 -152 9 -39 19 -39 19 -64 0 -59 -47
-166 -44 -212 6 -23 25 -24 25 -72 9 -76 -26 -150 -2 -207 66 -19 22 -33 29
-59 29 -63 0 -97 12 -142 52 -24 21 -49 54 -56 72 -10 29 -18 35 -51 40 -69
11 -130 86 -152 186 -3 15 -19 32 -40 44 -53 29 -89 86 -94 154 -3 45 -10 63
-33 87 -40 43 -59 95 -59 164 0 33 -4 62 -9 66 -28 16 -25 -247 4 -472 26
-194 103 -538 155 -687 40 -116 51 -110 -192 -102 -117 4 -214 8 -214 9 -1 1
-9 65 -18 143 -38 335 -42 786 -10 1089 41 386 151 726 308 955 47 69 60 110
34 110 -19 0 -184 -176 -236 -252 -210 -307 -302 -673 -289 -1143 7 -216 52
-616 100 -889 3 -14 -101 -10 -118 4 -20 16 -129 354 -176 540 -100 403 -110
825 -28 1160 12 47 28 98 36 114 15 28 15 29 -14 23 -15 -2 -66 -21 -113 -41
-47 -20 -137 -58 -200 -83 -63 -25 -126 -51 -140 -59 -14 -7 -61 -28 -105 -47
-95 -41 -447 -209 -560 -267 -242 -125 -372 -190 -383 -190 -13 0 -43 62 -55
112 -9 33 -22 26 548 318 319 164 1500 755 1595 799 52 24 100 48 106 53 9 6
8 26 -3 76 -21 94 -47 145 -97 186 -52 42 -168 186 -220 273 -64 107 -129 253
-181 408 -48 142 -52 150 -76 147 -156 -22 -211 -9 -282 67 -71 76 -89 120
-192 463 -14 45 -25 62 -54 81 -62 41 -187 164 -259 255 -248 312 -405 699
-453 1117 -20 168 -15 477 10 645 66 439 213 902 426 1335 142 288 216 397
366 530 145 130 306 187 558 198 54 2 54 2 78 92 75 287 291 529 618 696 185
95 445 174 665 203 145 19 486 20 630 1z m1845 -7504 c-3 -6 -21 -11 -38 -11
-27 1 -29 2 -14 11 9 5 21 8 26 4 5 -3 13 0 16 6 4 5 9 8 12 5 3 -2 2 -9 -2
-15z m-75 -10 c0 -5 -11 -11 -25 -13 -14 -3 -25 -3 -25 -1 0 3 34 19 48 22 1
1 2 -3 2 -8z"/>
<path d="M4020 10623 c-222 -16 -456 -64 -615 -124 -296 -114 -521 -301 -635
-528 -91 -183 -98 -429 -16 -615 31 -70 14 -76 -39 -14 -48 56 -82 119 -109
197 -21 61 -24 65 -67 77 -62 19 -141 17 -237 -6 -184 -44 -315 -148 -455
-360 -98 -149 -268 -527 -365 -815 -235 -690 -263 -1255 -86 -1754 83 -235
182 -416 316 -581 40 -49 73 -88 74 -87 2 1 -7 38 -18 82 -28 113 -36 348 -14
471 20 118 63 248 123 372 43 91 45 98 21 75 -15 -14 -27 -29 -26 -32 2 -19
-3 -31 -13 -31 -8 0 -8 5 1 15 7 8 9 15 4 15 -5 0 -60 -50 -123 -110 -114
-110 -114 -110 -107 -63 9 68 26 124 35 119 12 -8 61 112 55 132 -4 12 -3 13
3 5 6 -9 20 6 46 50 20 34 77 121 127 192 114 165 220 340 266 439 46 101 129
339 106 306 -87 -124 -159 -207 -313 -362 -99 -99 -183 -177 -186 -174 -3 3
26 55 65 116 40 61 67 108 62 105 -6 -3 -7 1 -4 9 3 9 9 14 13 12 4 -3 13 5
21 17 12 21 12 21 -5 7 -9 -8 18 57 62 145 44 88 97 199 118 247 21 48 41 85
43 83 7 -7 -64 -167 -137 -310 -75 -147 -81 -162 -51 -120 57 80 189 368 271
590 29 80 29 80 -107 -55 -74 -74 -170 -175 -211 -225 -42 -49 -85 -96 -96
-104 -18 -13 -19 -12 -12 10 5 13 14 28 21 34 7 5 25 37 40 70 207 474 437
729 736 816 121 35 258 52 258 32 0 -5 -27 -21 -60 -37 -184 -90 -317 -290
-364 -548 -9 -46 -22 -150 -31 -233 -25 -234 -70 -463 -120 -604 -8 -24 -14
-45 -12 -47 1 -2 48 17 102 42 119 54 278 100 395 114 110 13 332 13 443 -1
177 -22 374 -95 487 -180 54 -42 54 -42 11 10 -78 93 -189 154 -381 210 -340
98 -570 94 -782 -16 -94 -48 -88 -46 -88 -35 0 20 165 152 234 188 176 93 318
104 611 48 162 -31 356 -105 414 -158 28 -26 63 -95 126 -248 33 -83 53 -118
64 -118 9 0 50 10 91 21 90 24 212 26 290 4 70 -19 79 -19 87 3 23 69 142 303
167 330 63 68 233 143 426 188 139 33 364 43 465 21 39 -8 71 -14 72 -13 1 1
-35 26 -80 56 -311 205 -521 406 -903 865 -152 182 -161 191 -213 207 -86 28
-203 40 -413 41 -109 1 -198 5 -198 8 0 3 28 22 62 42 35 20 58 37 52 37 -22
0 -273 -61 -327 -79 -71 -25 -74 -15 -18 67 45 67 111 130 181 173 28 17 49
33 48 35 -2 2 -24 -4 -48 -12 -79 -27 -199 -106 -257 -169 -31 -33 -69 -75
-86 -92 -29 -32 -51 -41 -61 -25 -12 20 28 164 69 248 35 73 58 104 110 153
36 33 84 70 105 81 22 11 40 22 40 24 0 8 -100 -23 -155 -48 -66 -30 -177
-135 -219 -208 -51 -88 -117 -268 -98 -268 5 0 14 25 21 55 7 30 17 57 22 60
5 4 9 15 9 26 0 11 7 22 15 25 8 4 13 9 11 13 -6 10 5 24 32 39 19 11 22 10
22 -7 0 -11 4 -22 9 -25 5 -4 7 2 4 13 -3 11 2 21 11 24 9 4 16 5 16 4 0 -2
-25 -120 -35 -167 -2 -8 -4 -22 -4 -31 -1 -11 -19 -19 -67 -28 -36 -6 -74 -17
-84 -24 -11 -6 -23 -8 -27 -3 -15 15 -7 218 11 291 80 317 343 492 645 431
109 -22 169 -46 266 -103 129 -77 191 -128 355 -292 85 -85 158 -154 163 -153
11 3 147 -140 141 -150 -6 -9 -35 19 -93 90 -24 29 -46 51 -48 48 -3 -2 19
-33 49 -69 29 -35 91 -111 138 -168 126 -156 241 -279 253 -272 5 3 7 2 4 -4
-7 -11 139 -157 249 -250 82 -69 234 -183 314 -235 307 -200 701 -334 1040
-353 95 -5 95 -5 30 14 -485 141 -924 429 -1314 861 -148 163 -268 307 -303
363 -15 23 -48 68 -75 100 -57 68 -61 80 -14 39 19 -17 42 -34 51 -39 9 -5 18
-16 20 -24 10 -43 27 -62 133 -151 153 -127 359 -272 498 -351 99 -56 282
-137 379 -168 91 -30 359 -89 401 -89 19 0 -3 26 -109 128 -72 70 -214 208
-315 307 -101 99 -188 179 -194 177 -5 -1 -7 1 -5 5 6 9 -349 375 -454 469
-65 59 -169 134 -304 219 -137 87 -119 84 92 -16 193 -90 274 -131 410 -207
111 -61 136 -79 113 -79 -16 0 -28 5 -27 10 2 8 -108 77 -124 77 -3 0 -14 -7
-25 -15 -18 -15 -18 -15 9 -9 22 5 26 3 21 -10 -3 -9 -10 -16 -15 -16 -4 0 -5
-8 -2 -17 6 -15 2 -14 -23 3 -63 45 -65 36 -1 -10 56 -40 135 -97 165 -118 18
-13 45 -32 60 -44 15 -11 72 -52 127 -89 99 -68 112 -77 189 -136 24 -18 46
-27 57 -24 9 3 20 1 24 -4 4 -7 -1 -8 -11 -4 -37 14 1 -19 112 -97 183 -129
203 -142 215 -134 7 4 9 3 6 -3 -4 -6 9 -23 28 -37 19 -15 35 -24 35 -21 0 3
-24 59 -54 125 -126 278 -289 524 -494 748 -112 123 -398 362 -433 362 -5 0
-9 -4 -9 -10 0 -5 3 -9 8 -8 11 4 73 -34 115 -72 29 -25 35 -35 25 -42 -9 -5
-5 -7 12 -6 16 2 24 -2 23 -9 -2 -7 3 -13 10 -13 20 0 38 -16 41 -34 1 -10 7
-21 12 -24 16 -12 40 -46 27 -38 -8 4 -13 1 -13 -9 0 -12 4 -14 19 -6 10 6 21
7 25 4 3 -3 6 -1 6 5 0 7 10 2 23 -10 12 -13 21 -26 19 -31 -1 -4 3 -6 9 -5 6
2 14 -3 17 -11 3 -10 0 -12 -11 -8 -11 4 -14 2 -10 -9 4 -11 9 -12 16 -5 17
17 27 13 21 -6 -5 -15 -4 -16 5 -3 10 13 15 8 12 -12 0 -5 3 -8 8 -8 27 0 137
-133 125 -151 -5 -9 -11 -7 -20 6 -8 10 -17 16 -20 12 -4 -4 -1 -13 5 -21 11
-13 9 -15 -8 -11 -20 4 -20 3 -5 -28 15 -32 15 -32 -6 -7 -11 14 -39 49 -62
79 -221 292 -532 563 -818 713 -30 16 -46 26 -35 23 155 -49 325 -111 325
-118 0 -5 -7 -7 -14 -4 -10 4 -13 1 -9 -9 7 -18 20 -18 31 1 7 14 16 12 68
-10 158 -70 154 -67 141 -84 -9 -12 -9 -13 1 -7 7 4 15 1 18 -8 3 -9 12 -16
19 -16 7 0 19 -8 26 -17 12 -15 12 -16 -1 -8 -8 6 -17 10 -20 11 -3 0 -31 13
-64 28 -96 44 -73 24 37 -32 291 -148 495 -293 721 -512 262 -254 518 -627
690 -1007 34 -76 71 -159 81 -186 10 -26 20 -46 21 -44 6 5 -106 333 -156 457
-58 146 -190 409 -285 568 -372 621 -921 1055 -1631 1291 -312 103 -683 155
-964 134z m-76 -369 c53 -8 44 -24 -13 -24 -74 0 -251 -33 -336 -62 -182 -62
-287 -127 -415 -257 -101 -103 -149 -173 -186 -275 -71 -196 -70 -354 3 -578
12 -40 -26 -15 -66 42 -88 124 -120 255 -101 408 34 272 182 479 440 616 197
104 473 157 674 130z m1832 -392 c-5 -4 -66 26 -66 33 0 3 16 -3 35 -12 19 -9
33 -18 31 -21z m79 -42 c28 -16 66 -37 85 -48 19 -11 44 -30 55 -43 11 -13 13
-18 5 -11 -20 17 -35 15 -20 -3 10 -12 10 -15 0 -15 -9 0 -7 -7 6 -21 12 -14
2 -10 -28 11 -40 28 -45 35 -32 47 21 21 17 25 -8 9 -21 -12 -28 -10 -81 23
-31 21 -54 41 -50 44 3 4 2 7 -4 7 -6 0 -13 7 -17 15 -9 25 34 18 89 -15z
m-3276 -251 c21 -49 41 -120 31 -114 -4 3 -10 0 -12 -7 -4 -10 -36 69 -53 130
-10 34 18 27 34 -9z m855 -50 c-3 -5 -10 -7 -15 -3 -5 3 -7 10 -3 15 3 5 10 7
15 3 5 -3 7 -10 3 -15z m2030 -94 c-8 -26 -9 -26 -27 -19 -16 6 -14 27 6 52
14 18 29 -6 21 -33z m-2131 14 c-3 -11 -12 -23 -20 -26 -8 -3 -11 -13 -8 -27
4 -14 3 -17 -3 -8 -7 10 -13 5 -25 -20 -13 -27 -17 -30 -22 -15 -10 25 -24 21
-17 -5 3 -14 1 -19 -6 -14 -6 3 -15 -2 -21 -11 -6 -10 -11 -13 -11 -7 0 15 46
83 75 111 16 15 25 19 28 10 3 -7 6 -2 6 11 1 12 7 22 15 22 9 0 12 -7 9 -21z
m-793 -34 c38 -13 40 -15 13 -12 -18 2 -33 2 -33 0 0 -11 31 -63 38 -63 4 0
18 -9 32 -20 17 -14 6 -11 -36 9 -35 17 -95 35 -142 43 -83 13 -83 13 -45 26
31 11 72 21 123 31 3 0 25 -6 50 -14z m3195 -65 c3 -4 -2 -10 -10 -13 -10 -4
-12 -1 -8 10 5 13 2 15 -11 10 -9 -4 -15 -3 -12 2 3 4 -12 16 -34 26 -22 10
-40 21 -40 26 0 8 107 -48 115 -61z m-3020 -22 c8 -10 10 -18 5 -18 -5 0 -15
9 -22 19 -8 14 -16 17 -24 10 -9 -7 -11 -1 -10 21 1 31 1 31 19 8 10 -13 25
-31 32 -40z m2955 12 c0 -5 -4 -10 -10 -10 -5 0 -10 5 -10 10 0 6 5 10 10 10
6 0 10 -4 10 -10z m120 -16 c14 -8 17 -13 7 -10 -10 3 -25 6 -33 6 -8 0 -14 5
-14 10 0 14 10 12 40 -6z m309 -64 c10 -8 41 -58 41 -67 0 -4 -10 7 -21 25
-12 17 -26 32 -33 32 -15 0 -38 38 -31 50 4 6 1 10 -5 10 -6 0 -8 5 -4 11 3 6
15 -3 26 -23 11 -18 23 -35 27 -38z m-3274 9 c-5 -15 -4 -19 4 -15 6 4 11 3
11 -3 0 -20 -19 -21 -25 -1 -6 18 -8 18 -21 5 -20 -19 -23 -19 -19 3 1 10 11
17 24 16 11 0 21 3 21 8 0 4 3 8 6 8 3 0 2 -10 -1 -21z m675 13 c0 -4 -10 -13
-22 -21 -23 -14 -23 -14 -4 8 20 22 26 25 26 13z m3050 -7 c7 -9 8 -15 2 -15
-5 0 -12 7 -16 15 -3 8 -4 15 -2 15 2 0 9 -7 16 -15z m-868 -17 c-7 -7 -12 -8
-12 -2 0 14 12 26 19 19 2 -3 -1 -11 -7 -17z m318 -3 c14 -19 14 -19 -2 -6
-10 7 -18 18 -18 24 0 6 1 8 3 6 1 -2 9 -13 17 -24z m-42 -25 c37 -23 58 -25
65 -7 4 9 6 9 6 -1 1 -7 -10 -18 -24 -24 -21 -10 -27 -8 -39 7 -8 12 -18 15
-27 10 -8 -5 -11 -5 -7 0 4 4 0 14 -10 21 -27 21 -1 16 36 -6z m-3101 -27 c9
-26 54 -94 80 -123 14 -14 19 -28 14 -33 -5 -5 -45 -11 -87 -14 -78 -5 -78 -4
-61 15 13 15 15 22 7 27 -7 4 -16 1 -21 -6 -6 -9 -9 -10 -9 -2 0 7 8 17 18 22
15 9 15 10 -5 11 -12 0 -26 -7 -31 -16 -8 -14 -16 -15 -67 -4 -67 14 -206 17
-280 7 -37 -5 -44 -4 -27 3 42 18 75 22 175 23 53 1 97 3 97 7 0 3 9 11 20 18
17 11 28 9 67 -8 25 -11 47 -20 48 -20 2 0 6 10 9 23 7 22 7 22 16 0 9 -23 40
-32 40 -13 0 6 -3 10 -7 10 -15 0 -34 53 -23 64 7 7 10 3 10 -11 0 -12 5 -25
10 -28 15 -9 0 48 -14 57 -8 5 -7 8 2 8 7 0 16 -8 19 -17z m-240 -34 c34 -6
60 -15 57 -20 -3 -5 -10 -7 -15 -4 -26 16 -159 28 -159 14 0 -6 5 -7 10 -4 6
3 10 1 10 -4 0 -14 -6 -14 -32 0 -13 7 -18 7 -14 0 4 -5 -3 -15 -14 -21 -16
-8 -20 -8 -20 4 0 8 6 17 13 20 6 3 -8 3 -33 0 -53 -7 -50 2 6 15 55 13 117
13 191 0z m-24 -26 c3 -5 -5 -8 -18 -8 -13 0 -21 3 -18 8 2 4 10 7 18 7 8 0
16 -3 18 -7z m816 -7 c-10 -9 -79 -14 -74 -5 4 5 22 9 42 9 20 0 34 -2 32 -4z
m2516 -55 c-6 -5 -25 10 -25 20 0 5 6 4 14 -3 8 -7 12 -15 11 -17z m275 24 c0
-2 -6 -8 -13 -14 -10 -8 -14 -7 -14 2 0 8 6 14 14 14 7 0 13 -1 13 -2z m-2007
-25 c73 -12 142 -28 155 -36 32 -21 282 -326 276 -336 -3 -5 -2 -7 3 -6 4 2
49 -42 99 -97 92 -100 280 -288 384 -381 61 -55 269 -212 315 -237 30 -17 29
-17 -40 -11 -143 11 -114 -4 -297 157 -139 121 -216 198 -359 357 -151 169
-191 219 -183 231 4 7 3 9 -4 6 -5 -4 -46 35 -91 87 -148 172 -233 236 -362
270 -75 20 -49 19 104 -4z m-1843 -4 c0 -2 -13 -9 -30 -15 -35 -12 -41 -5 -7
9 25 10 37 12 37 6z m2764 -25 c-2 -3 -12 3 -22 13 -16 17 -16 18 5 5 12 -7
20 -15 17 -18z m-412 -34 c60 -60 92 -101 47 -59 -40 37 -61 43 -33 10 19 -23
19 -23 -4 -4 -12 11 -20 21 -17 24 2 2 -6 13 -18 23 -12 10 -18 18 -13 19 5 0
3 7 -4 15 -26 31 2 13 42 -28z m-2472 3 c-19 -11 -39 -19 -45 -19 -5 0 6 8 25
19 19 11 40 19 45 19 6 0 -6 -8 -25 -19z m520 11 c0 -14 -102 -34 -110 -21 -4
7 -16 7 -38 -1 -17 -6 -37 -9 -43 -7 -17 6 109 36 154 37 20 1 37 -3 37 -8z
m2490 -72 c0 -18 3 -19 15 -9 11 9 37 -1 133 -53 65 -35 129 -68 143 -72 13
-4 33 -13 45 -20 46 -29 356 -135 437 -149 35 -7 38 -6 28 11 -5 11 -38 50
-73 89 -127 140 -213 238 -201 231 25 -15 228 -228 231 -242 2 -8 8 -15 13
-15 5 0 9 -7 9 -16 0 -9 5 -12 12 -8 7 4 8 3 4 -4 -4 -7 -2 -13 3 -13 6 -1 16
-2 23 -3 7 0 17 -10 23 -22 5 -11 17 -18 24 -16 12 4 12 3 0 -11 -8 -8 -15
-11 -17 -6 -2 5 -20 9 -40 9 -20 0 -55 5 -77 10 -25 6 -44 5 -49 0 -15 -15
-26 -12 -20 5 7 18 -12 20 -19 3 -4 -10 -8 -10 -15 1 -7 10 -14 10 -29 3 -14
-8 -23 -8 -30 -1 -8 8 -13 7 -17 0 -4 -6 -2 -11 3 -11 6 0 11 -16 11 -35 0
-20 5 -35 12 -35 6 0 9 -3 6 -6 -3 -3 -40 11 -82 30 -42 20 -81 36 -86 36 -6
0 -10 4 -10 8 0 4 -15 13 -34 20 -30 11 -54 47 -41 61 3 2 5 -1 5 -7 0 -6 6
-10 13 -8 6 1 9 1 4 -1 -4 -3 -5 -9 -2 -14 8 -13 33 13 28 28 -3 7 2 13 10 13
9 0 19 5 23 11 5 9 -1 10 -22 5 -16 -4 -24 -3 -17 2 8 5 -6 16 -40 32 -29 13
-77 36 -108 51 -37 17 -61 24 -70 18 -11 -7 -10 -9 4 -9 9 0 17 -4 17 -10 0
-5 6 -10 14 -10 8 0 17 -4 20 -9 6 -9 -28 -7 -59 4 -14 5 -11 0 10 -19 28 -25
27 -25 -22 4 -47 28 -51 33 -40 51 6 10 18 19 25 19 7 0 10 -4 7 -10 -4 -6 1
-7 11 -3 14 5 13 8 -7 19 -25 14 -47 18 -36 8 7 -8 -10 -44 -21 -44 -12 0 -67
52 -65 61 2 4 -3 6 -10 3 -8 -3 -29 10 -48 27 -19 18 -27 27 -18 21 12 -9 20
-8 35 3 15 11 16 15 4 16 -8 1 -18 1 -22 1 -3 -1 -9 5 -12 13 -5 13 -2 13 24
0 19 -10 30 -23 30 -36z m-3080 24 c0 -5 -13 -17 -28 -27 -27 -19 -27 -19 -3
7 26 28 31 32 31 20z m2644 -114 c-5 -9 1 -10 21 -5 24 6 27 5 16 -7 -8 -10
-9 -17 -1 -22 5 -3 10 -11 10 -17 0 -7 -13 1 -30 17 -25 24 -32 45 -14 45 3 0
2 -5 -2 -11z m80 -34 c11 -9 14 -15 7 -15 -7 0 -19 7 -27 15 -20 19 -5 19 20
0z m-2634 2 c0 -2 -10 -12 -22 -23 -23 -19 -23 -19 -4 4 18 21 26 27 26 19z
m-113 -124 c-8 -10 -17 -31 -18 -48 -3 -32 -35 -75 -55 -75 -15 0 -26 -28 -17
-42 3 -7 1 -8 -5 -4 -7 4 -15 -8 -21 -32 -6 -21 -19 -47 -30 -58 -10 -11 -35
-63 -56 -115 -43 -109 -65 -141 -34 -52 21 64 111 245 157 321 44 69 82 122
89 122 3 0 -1 -8 -10 -17z m5 -45 c-7 -7 -12 -8 -12 -2 0 14 12 26 19 19 2 -3
-1 -11 -7 -17z m2944 -19 c3 -6 -5 -3 -20 6 -14 10 -26 19 -26 22 0 7 39 -17
46 -28z m1019 -60 c11 -16 1 -19 -13 -3 -7 8 -8 14 -3 14 5 0 13 -5 16 -11z
m-762 -153 c78 -59 94 -75 80 -81 -11 -5 -14 -9 -6 -12 7 -2 9 -11 6 -20 -4
-9 -2 -14 3 -10 5 3 10 -3 10 -13 0 -17 -2 -17 -31 -3 -16 9 -32 19 -35 22 -3
3 -38 32 -78 64 -42 34 -70 63 -66 69 4 7 2 8 -5 4 -7 -5 -30 7 -56 29 -49 39
-77 79 -50 69 8 -3 13 -9 11 -13 -3 -4 4 -7 15 -7 11 0 15 4 10 9 -6 6 -5 15
2 22 10 11 20 6 52 -21 22 -19 84 -67 138 -108z m654 86 c0 -7 -7 -10 -14 -7
-8 3 -21 5 -29 5 -9 0 -13 3 -11 8 8 12 54 8 54 -6z m38 -12 c3 -5 2 -10 -4
-10 -5 0 -13 5 -16 10 -3 6 -2 10 4 10 5 0 13 -4 16 -10z m255 -52 c0 -10 -42
-10 -58 0 -8 5 1 8 23 8 19 -1 35 -4 35 -8z m-455 -340 c41 -24 14 -23 -32 2
-37 20 -37 20 -50 -3 -7 -12 -12 -16 -13 -9 0 7 -4 11 -9 8 -12 -8 -41 4 -41
16 0 7 5 6 14 -1 15 -12 46 -5 46 11 0 7 -5 6 -14 -1 -10 -9 -16 -8 -26 4 -11
13 -10 14 6 9 11 -4 5 6 -16 25 -35 31 -35 31 35 -6 39 -20 84 -45 100 -55z
m-3994 5 c-12 -20 -14 -14 -5 12 4 9 9 14 11 11 3 -2 0 -13 -6 -23z m3964 -52
c-6 -5 -25 10 -25 20 0 5 6 4 14 -3 8 -7 12 -15 11 -17z m300 -74 c30 -11 30
-11 -10 -18 -22 -4 -44 -3 -50 3 -6 6 -4 7 8 3 9 -4 17 -4 17 0 0 4 -8 14 -17
22 -20 16 -18 16 52 -10z m-3889 -66 c-9 -10 -13 -20 -10 -24 3 -3 2 -12 -2
-19 -5 -7 -9 -15 -9 -18 -4 -30 -18 -48 -33 -43 -15 6 -15 4 -4 -9 11 -14 10
-16 -7 -11 -12 3 -18 11 -15 21 2 10 -2 4 -10 -13 -8 -16 -15 -37 -15 -45 0
-8 4 -5 9 8 13 31 22 28 14 -4 -5 -20 -4 -25 6 -19 13 8 2 -16 -29 -64 -8 -13
-16 -30 -17 -37 -4 -23 -83 -159 -109 -188 -14 -15 -25 -29 -25 -32 0 -3 -5
-10 -10 -17 -18 -20 -80 -118 -80 -125 0 -4 -10 -13 -22 -21 -22 -14 -22 -14
-5 12 82 126 192 340 247 485 27 70 130 211 139 190 1 -5 -4 -17 -13 -27z
m3989 19 c-3 -5 -11 -10 -16 -10 -6 0 -7 5 -4 10 3 6 11 10 16 10 6 0 7 -4 4
-10z m-4389 -727 c-8 -16 -22 -37 -31 -48 -16 -19 -17 -19 -3 5 8 14 20 35 27
48 6 12 14 22 17 22 2 0 -2 -12 -10 -27z m-316 -58 c-23 -169 -29 -202 -27
-152 1 26 -2 47 -6 47 -5 0 -5 6 -1 13 4 6 4 9 0 5 -4 -3 -8 -10 -8 -15 1 -4
-5 -15 -12 -23 -7 -8 -19 -49 -26 -90 -7 -41 -19 -91 -26 -110 -13 -35 -13
-35 -7 10 10 76 49 221 83 308 18 45 34 81 36 79 2 -1 -1 -34 -6 -72z m350
-227 c0 -7 -12 -25 -27 -40 -23 -24 -25 -30 -13 -38 12 -8 11 -11 -9 -16 -20
-6 -22 -11 -18 -41 6 -34 6 -34 -13 -11 -20 23 -20 23 -26 1 -5 -19 -8 -20
-20 -9 -7 8 -19 16 -26 19 -8 3 7 24 40 55 28 28 52 47 52 42 0 -5 7 -7 16 -3
8 3 13 11 10 18 -5 13 12 35 26 35 4 0 8 -5 8 -12z m-346 -155 c4 -24 4 -43
-1 -43 -5 0 -9 8 -10 18 0 9 -3 37 -6 62 -7 55 -10 102 -7 115 2 6 6 -17 10
-50 4 -33 10 -79 14 -102z m170 -9 c9 -3 16 -14 16 -23 0 -9 6 -23 13 -31 6
-8 2 -6 -10 3 -20 18 -22 18 -32 0 -7 -12 -10 -13 -11 -4 0 8 8 20 18 27 9 7
12 14 6 14 -28 0 -36 -32 -36 -142 -1 -85 -3 -103 -9 -73 -10 49 -1 205 13
223 12 14 11 14 32 6z m75 -23 c9 -6 10 -11 2 -15 -6 -4 -11 -19 -11 -34 0
-21 -2 -24 -10 -12 -11 17 -13 10 -4 -14 3 -9 10 -13 15 -10 5 3 9 0 9 -5 0
-6 -6 -11 -12 -11 -10 0 -10 -2 -1 -8 9 -6 10 -17 2 -45 -5 -20 -12 -37 -16
-37 -3 0 -2 8 1 17 4 9 1 20 -5 24 -7 4 -8 12 -3 20 14 23 13 39 -2 39 -9 0
-12 5 -9 13 4 6 0 4 -8 -5 -19 -24 -24 -23 -22 4 1 12 11 25 24 30 12 4 19 13
16 18 -8 13 1 40 12 40 4 0 14 -4 22 -9z m-231 -52 c-3 -8 -7 -3 -11 10 -4 17
-3 21 5 13 5 -5 8 -16 6 -23z m192 -110 c0 -3 -12 -11 -27 -18 -24 -10 -26
-10 -10 2 9 8 17 23 17 33 0 16 2 17 10 4 5 -8 10 -18 10 -21z m-29 -239 c7 0
9 -3 6 -6 -10 -10 -37 16 -36 35 0 11 3 9 9 -6 5 -13 15 -23 21 -23z"/>
<path d="M5940 9733 c0 -14 19 -38 25 -32 8 8 -5 39 -16 39 -5 0 -9 -3 -9 -7z"/>
<path d="M3276 9407 c-10 -8 -16 -22 -14 -33 3 -16 7 -14 21 14 19 36 19 38
-7 19z"/>
<path d="M2494 9383 c2 -9 8 -18 15 -19 6 -1 7 0 1 3 -5 2 -8 9 -5 13 3 5 1
11 -4 14 -5 4 -8 -2 -7 -11z"/>
<path d="M2882 9099 c6 -16 12 -29 13 -27 6 6 -8 58 -16 58 -4 0 -3 -14 3 -31z"/>
<path d="M2687 9105 c-7 -17 -2 -20 38 -28 30 -6 30 -6 2 6 -16 6 -25 17 -23
24 3 7 1 13 -3 13 -5 0 -11 -7 -14 -15z"/>
<path d="M2740 9100 c0 -6 7 -10 15 -10 8 0 15 2 15 4 0 2 -7 6 -15 10 -8 3
-15 1 -15 -4z"/>
<path d="M4850 8356 c0 -2 7 -6 15 -10 8 -3 15 -1 15 4 0 6 -7 10 -15 10 -8 0
-15 -2 -15 -4z"/>
<path d="M5284 8921 c4 -6 2 -11 -3 -11 -6 0 -11 -5 -11 -12 0 -9 3 -9 11 -1
9 9 15 8 27 -3 8 -8 17 -13 19 -10 8 7 -6 25 -29 37 -15 8 -19 8 -14 0z"/>
<path d="M5744 8628 c-3 -5 -3 -12 0 -15 3 -4 6 -2 6 4 0 6 9 9 20 6 11 -3 20
-3 20 0 0 10 -40 15 -46 5z"/>
<path d="M5234 8468 c-4 -7 -3 -8 4 -4 7 4 23 -4 37 -18 14 -14 25 -22 25 -18
-1 26 -55 59 -66 40z"/>
<path d="M2097 7713 c-5 -28 8 -30 23 -4 13 25 13 28 -4 28 -8 0 -16 -11 -19
-24z"/>
<path d="M5145 10120 c3 -5 11 -10 16 -10 6 0 7 5 4 10 -3 6 -11 10 -16 10 -6
0 -7 -4 -4 -10z"/>
<path d="M5239 10059 c24 -17 45 -28 49 -25 3 3 0 6 -6 6 -7 0 -12 8 -12 17 0
9 -3 13 -6 10 -4 -3 -16 0 -28 8 -11 8 -25 15 -30 15 -5 0 10 -14 33 -31z"/>
<path d="M5790 9542 c0 -26 51 -45 55 -19 2 9 0 15 -5 12 -5 -3 -11 1 -13 7
-4 10 -6 9 -6 -1 -1 -11 -4 -11 -16 -1 -8 7 -15 8 -15 2z"/>
<path d="M5190 7794 c-182 -23 -354 -73 -467 -135 -58 -33 -220 -185 -209
-197 4 -3 25 13 49 35 95 92 230 156 424 200 108 24 136 27 333 27 199 0 223
-2 328 -27 62 -15 150 -43 195 -62 81 -35 81 -35 51 -4 -44 47 -177 106 -300
135 -107 24 -316 39 -404 28z"/>
<path d="M6300 7676 c0 -3 16 -31 35 -63 88 -149 150 -356 167 -568 11 -138 6
-206 -12 -160 -4 11 -20 59 -36 107 -15 49 -29 87 -30 85 -1 -1 2 -51 6 -112
13 -169 -13 -509 -51 -678 -38 -166 87 100 144 308 43 154 52 229 52 432 0
106 3 193 7 193 9 0 66 -86 112 -170 20 -36 36 -59 36 -51 0 35 -90 277 -138
371 -53 104 -144 241 -186 278 -18 17 -106 40 -106 28z m370 -521 c23 -59 18
-65 -14 -15 -20 30 -36 58 -36 62 0 13 41 -26 50 -47z m-113 0 c0 -6 -6 -12
-14 -12 -7 0 -13 6 -13 13 0 7 -4 15 -9 18 -4 3 -7 -7 -5 -22 4 -27 4 -27 -5
-2 -17 46 -13 53 17 34 16 -9 29 -22 29 -29z m13 -104 c0 -6 -4 -13 -10 -16
-5 -3 -10 1 -10 9 0 9 5 16 10 16 6 0 10 -4 10 -9z"/>
<path d="M5185 7614 c-220 -26 -365 -63 -455 -116 -51 -30 -137 -116 -166
-166 -55 -93 -70 -226 -39 -347 23 -92 98 -233 157 -297 l53 -58 75 66 c113
98 189 156 201 152 6 -2 -15 -26 -47 -53 -33 -28 -66 -57 -74 -66 -8 -9 -43
-39 -77 -67 l-62 -51 70 -46 c152 -100 273 -138 444 -138 132 -1 227 22 355
85 68 34 103 61 176 133 75 74 98 105 132 175 68 140 92 283 73 435 -16 134
-27 162 -80 215 -92 92 -323 151 -575 149 -72 -1 -144 -4 -161 -5z m-235 -79
c7 -8 8 -15 2 -15 -5 0 -15 7 -22 15 -7 8 -8 15 -2 15 5 0 15 -7 22 -15z m61
-57 c16 -18 29 -36 29 -40 0 -4 -17 -10 -37 -13 -85 -14 -100 -19 -158 -48
-37 -18 -86 -57 -128 -99 -38 -38 -71 -67 -74 -64 -12 12 54 121 104 172 54
55 107 87 178 110 55 17 53 18 86 -18z m272 -7 c103 -36 180 -78 221 -120 43
-45 24 -53 -46 -19 -108 52 -190 78 -288 90 -97 12 -127 26 -152 72 -10 18 -6
19 83 14 69 -4 117 -14 182 -37z m41 24 c-4 -8 -8 -15 -10 -15 -2 0 -4 7 -4
15 0 8 4 15 10 15 5 0 7 -7 4 -15z m99 -45 c3 -11 1 -20 -4 -20 -5 0 -9 9 -9
20 0 11 2 20 4 20 2 0 6 -9 9 -20z m307 -50 c0 -11 -4 -20 -9 -20 -6 0 -9 9
-8 20 1 11 5 20 9 20 4 0 8 -9 8 -20z m-528 -125 c82 -91 86 -98 81 -133 -3
-28 -17 -49 -55 -85 -101 -96 -113 -102 -198 -101 -103 2 -192 13 -185 25 4 5
33 9 65 9 59 0 59 0 35 36 -31 46 -48 105 -39 140 6 24 5 25 -13 16 -34 -18
-121 -87 -172 -135 -42 -40 -71 -58 -71 -43 0 17 55 121 87 163 74 99 165 164
259 187 110 27 109 27 206 -79z m88 63 c36 -11 82 -23 103 -26 21 -4 37 -11
37 -17 -1 -16 39 -18 57 -3 37 30 4 -11 -47 -58 -52 -48 -58 -52 -100 -49 -42
3 -50 9 -122 87 -43 46 -77 86 -78 91 0 10 71 -2 150 -25z m336 -85 c-5 -12
-22 -27 -37 -34 -53 -21 -33 -32 51 -27 97 6 105 -8 28 -45 -51 -25 -52 -26
-26 -32 15 -4 48 -5 73 -3 29 2 45 -1 45 -8 0 -15 -104 -64 -150 -72 -19 -3
-55 -18 -79 -34 -57 -36 -74 -35 -105 4 -25 33 -25 33 -4 55 21 22 21 22 -6
53 -35 42 -33 61 13 103 35 32 43 34 106 36 38 1 70 3 72 5 4 4 10 40 14 86 1
15 5 6 8 -20 4 -25 2 -55 -3 -67z m-71 37 c-3 -5 -10 -10 -16 -10 -5 0 -9 5
-9 10 0 6 7 10 16 10 8 0 12 -4 9 -10z m-302 -251 c-22 -39 -73 -79 -99 -79
-14 1 -3 15 41 55 68 62 84 68 58 24z m162 -45 c21 -32 8 -50 -43 -58 -159
-23 -205 -15 -116 19 26 10 65 28 88 41 51 29 50 29 71 -2z m77 -264 c11 -18
24 -20 106 -20 70 0 97 4 108 15 20 19 27 19 54 -3 27 -22 21 -56 -13 -73 -17
-10 -24 -8 -38 10 -15 19 -27 21 -109 21 -82 0 -94 -2 -109 -21 -34 -42 -101
-19 -101 35 0 50 77 77 102 36z"/>
<path d="M5010 7185 c-18 -22 -8 -50 19 -50 32 0 49 28 32 49 -17 20 -35 20
-51 1z"/>
<path d="M5135 7130 c-7 -12 30 -50 50 -50 8 0 19 9 25 19 14 27 13 29 -14 24
-13 -3 -27 0 -30 6 -9 14 -23 14 -31 1z"/>
<path d="M2730 7571 c-87 -13 -181 -39 -238 -68 -153 -77 -213 -234 -179 -470
27 -191 74 -290 197 -414 66 -67 200 -160 226 -158 16 1 123 136 130 163 5 22
11 27 33 24 37 -4 43 -52 8 -64 -23 -8 -144 -131 -136 -138 17 -12 107 -37
169 -46 98 -14 215 -4 315 27 108 34 176 70 264 138 73 58 73 58 22 81 -28 13
-79 33 -113 45 -35 11 -70 25 -80 30 -10 5 -41 14 -69 19 -29 6 -57 16 -63 23
-6 8 -57 28 -113 46 -95 30 -123 44 -110 58 7 6 144 -34 242 -71 39 -15 108
-40 155 -57 92 -32 138 -51 184 -76 30 -16 30 -16 66 26 152 176 200 420 117
586 -68 136 -197 222 -412 272 -98 23 -134 26 -335 29 -124 1 -250 -1 -280 -5z
m365 -51 c-3 -5 -16 -10 -28 -9 -20 1 -20 2 3 9 14 4 26 8 28 9 2 1 0 -3 -3
-9z m317 -49 c58 -24 88 -45 125 -84 56 -60 88 -109 99 -152 7 -27 1 -24 -57
36 -151 156 -354 193 -613 112 -45 -13 -99 -35 -121 -48 -22 -12 -51 -26 -64
-30 -21 -6 -23 -5 -18 14 4 18 -1 15 -29 -14 -41 -44 -45 -33 -4 14 16 19 33
30 40 26 6 -4 21 2 33 13 29 26 142 87 197 108 151 54 290 56 412 5z m-97
-126 c71 -19 134 -58 191 -117 65 -66 147 -208 131 -224 -3 -4 -42 26 -86 66
-44 40 -98 83 -119 96 -40 24 -40 24 -35 -15 6 -47 -10 -102 -43 -141 -25 -29
-25 -29 46 -23 45 4 70 2 70 -4 0 -24 -197 -40 -285 -24 -102 19 -145 65 -154
166 -6 65 -6 65 -67 27 -33 -20 -71 -45 -84 -54 -24 -18 -24 -18 5 -49 26 -26
133 -85 189 -103 44 -15 -4 -24 -82 -16 -81 9 -176 42 -213 76 -9 8 -45 19
-80 25 -67 11 -159 46 -159 60 0 5 12 9 28 9 40 0 102 12 102 19 0 3 -18 14
-40 23 -22 9 -40 23 -40 32 0 12 17 16 88 18 87 3 87 3 51 19 -70 32 -59 55
18 39 32 -7 57 -7 74 -1 22 9 22 10 3 10 -12 1 -27 8 -34 16 -14 17 -13 17 52
15 27 -1 65 6 90 17 38 17 96 35 153 47 49 10 176 5 230 -9z m-529 -491 c12
-47 -55 -86 -85 -50 -20 23 -9 69 18 83 31 15 58 2 67 -33z m149 36 c8 -13 -5
-13 -25 0 -13 8 -13 10 2 10 9 0 20 -4 23 -10z m236 -33 c-1 -4 -3 -7 -6 -7
-40 0 -40 0 -25 10 16 10 32 9 31 -3z"/>
<path d="M3140 7185 c-18 -22 -1 -50 31 -50 20 0 24 5 24 30 0 23 -5 31 -21
33 -11 2 -27 -4 -34 -13z"/>
<path d="M6062 7464 c-27 -19 -29 -64 -4 -87 23 -21 159 -24 186 -4 27 20 18
78 -14 94 -36 18 -141 17 -168 -3z"/>
<path d="M2063 7410 c-45 -18 -37 -81 13 -100 14 -6 52 -10 85 -10 86 0 122
42 83 98 -13 19 -24 22 -87 21 -40 0 -82 -4 -94 -9z"/>
<path d="M4033 7225 c-61 -31 -88 -70 -97 -141 -14 -115 -95 -313 -171 -420
-168 -235 -431 -378 -720 -391 -285 -12 -559 125 -722 362 -11 17 -43 74 -71
127 -47 93 -50 96 -56 66 -15 -77 -1 -269 35 -463 35 -184 112 -520 240 -1045
49 -198 114 -390 183 -542 92 -202 260 -390 403 -455 53 -24 163 -56 170 -49
1 1 -17 16 -41 33 -70 49 -185 211 -174 244 2 5 30 -11 63 -36 105 -78 146
-107 150 -103 2 2 0 29 -4 61 -4 32 -5 60 -1 62 3 2 33 -31 66 -73 138 -179
224 -252 365 -311 106 -44 199 -61 385 -68 310 -12 599 55 784 180 78 53 131
101 126 114 -3 7 0 12 6 10 15 -3 100 104 136 171 65 124 75 172 80 360 2 107
10 204 21 257 10 49 14 91 9 99 -14 24 -70 29 -138 12 -64 -17 -82 -25 -295
-133 -186 -95 -353 -132 -596 -133 -151 0 -266 16 -377 54 -78 27 -152 65
-152 78 0 10 -12 11 100 -13 66 -14 151 -22 280 -26 272 -8 413 11 620 85 75
26 75 26 35 34 -71 12 -280 9 -362 -7 -98 -19 -159 -19 -248 0 -40 8 -159 17
-280 21 -115 3 -255 12 -309 20 -127 18 -190 18 -226 -1 -28 -15 -28 -15 -23
-127 7 -153 -25 -298 -89 -398 -21 -32 -23 -33 -26 -13 -2 13 4 77 12 144 19
144 20 212 5 314 -8 52 -15 72 -21 63 -5 -8 -6 -4 -2 13 8 38 -14 48 -38 18
-10 -13 -37 -52 -59 -86 -23 -35 -45 -63 -50 -63 -11 0 -11 -1 6 95 22 121 21
125 -18 125 -18 0 -59 7 -90 15 -32 8 -60 15 -62 15 -20 0 8 -199 50 -357 14
-53 23 -98 21 -100 -8 -9 -57 86 -87 168 -55 150 -123 490 -102 510 5 4 42 12
83 18 89 14 222 75 320 149 74 56 261 246 366 372 122 146 215 219 279 220 16
0 10 -10 -28 -44 -62 -58 -91 -123 -90 -202 1 -63 11 -93 46 -131 20 -23 20
-23 39 7 23 39 23 48 -2 25 -20 -18 -35 -18 -22 1 16 24 82 58 68 35 -3 -4 6
-6 19 -3 14 2 22 8 19 13 -3 5 -1 9 5 9 5 0 13 -4 16 -10 3 -5 17 -10 31 -10
32 0 54 -12 96 -51 18 -17 56 -42 83 -56 50 -26 50 -26 10 18 -46 50 -90 117
-82 125 3 3 16 0 29 -7 15 -8 55 -12 113 -10 93 2 144 18 205 61 20 15 31 17
36 9 4 -7 3 -9 -3 -6 -6 4 -18 -2 -28 -13 -10 -12 -13 -20 -7 -20 31 0 6 -19
-47 -35 -41 -12 -81 -16 -134 -13 -55 2 -71 0 -59 -7 9 -5 51 -10 92 -10 96 1
169 34 251 114 87 85 89 101 40 313 -46 199 -73 362 -97 571 -17 148 -17 148
-56 179 -34 27 -50 32 -111 35 -63 4 -79 1 -124 -22z m255 -42 c6 -10 13 -58
17 -108 4 -49 8 -92 10 -95 2 -3 10 -64 19 -135 17 -140 24 -182 31 -203 32
-90 73 -348 54 -336 -11 6 -11 1 -3 -20 3 -9 11 -13 17 -9 6 4 7 1 3 -6 -6 -9
-13 -8 -27 5 -26 24 -24 6 3 -25 13 -14 16 -20 8 -13 -8 6 -21 12 -29 12 -13
-1 -13 -3 2 -11 9 -6 15 -15 11 -21 -4 -6 -10 -5 -15 3 -6 10 -9 10 -9 2 0 -6
5 -15 10 -18 6 -3 10 -12 10 -18 0 -7 -4 -6 -10 3 -8 12 -10 11 -10 -7 0 -12
-5 -25 -12 -29 -7 -4 -8 -3 -4 4 4 7 2 12 -4 12 -6 0 -13 -7 -17 -16 -5 -14
-7 -14 -14 -1 -6 9 -1 32 12 62 22 51 22 71 -1 240 -41 294 -53 403 -64 563
-6 100 -8 182 -4 182 4 0 11 -8 16 -17z m-875 -1059 c-15 -19 -41 -42 -58 -51
-21 -11 -14 -2 25 35 30 28 56 51 58 52 2 0 -10 -16 -25 -36z m-143 -120 c-8
-8 -23 -20 -34 -25 -13 -7 -9 -1 9 15 34 29 43 33 25 10z m-190 -134 c-14 -11
-29 -20 -35 -20 -5 0 4 9 20 20 38 25 48 25 15 0z m-54 -39 c0 -11 -4 -17 -8
-15 -4 3 -16 0 -25 -5 -14 -8 -15 -10 -3 -11 13 0 13 -2 1 -9 -9 -6 0 -8 27
-6 68 4 50 -20 -58 -78 -73 -40 -173 -74 -237 -80 -43 -4 -43 -4 -43 37 0 42
0 42 72 61 55 15 271 113 273 123 1 1 1 -7 1 -17z m97 -716 c4 -39 3 -50 -2
-30 -9 31 -14 102 -7 94 2 -2 6 -31 9 -64z m1392 -315 c86 -28 185 -77 185
-91 0 -7 -9 -9 -23 -6 -128 33 -224 41 -457 41 -187 0 -266 -4 -336 -17 -50
-9 -98 -19 -108 -23 -9 -3 -16 -1 -16 5 0 17 121 71 220 98 78 21 101 23 275
20 164 -3 199 -7 260 -27z m639 -7 c-4 -16 -13 -36 -20 -47 -7 -10 -10 -26 -7
-35 4 -13 3 -13 -5 -2 -8 10 -13 5 -23 -23 -8 -22 -16 -31 -20 -24 -4 7 0 23
10 37 9 15 28 47 42 74 13 26 25 47 27 47 1 0 -1 -12 -4 -27z m-93 -160 c-12
-20 -14 -14 -5 12 4 9 9 14 11 11 3 -2 0 -13 -6 -23z m-81 -113 c-12 -16 -24
-30 -26 -30 -3 0 4 14 16 30 12 17 24 30 26 30 3 0 -4 -13 -16 -30z m-100
-103 c0 -2 -15 -16 -32 -33 -33 -29 -33 -29 -4 4 28 30 36 37 36 29z m-1359
-128 c56 -32 76 -48 65 -52 -9 -4 -16 -3 -16 2 0 15 -61 36 -68 24 -4 -7 -34
16 -72 54 -55 54 -59 61 -27 41 21 -13 74 -44 118 -69z m-427 45 c3 -7 -3 -10
-15 -7 -26 7 -32 19 -9 19 11 0 22 -6 24 -12z m1602 -53 c-7 -11 -70 -41 -87
-41 -7 0 7 11 31 24 50 26 64 30 56 17z m-1142 -52 c-2 -4 10 -12 26 -18 17
-5 30 -14 30 -20 0 -5 -20 2 -45 16 -25 13 -45 26 -45 27 0 1 9 2 19 2 11 0
18 -3 15 -7z m1036 -30 c0 -4 -11 -2 -24 4 -13 7 -22 15 -20 19 5 8 44 -13 44
-23z m-54 -1 c5 -7 3 -8 -5 -3 -7 4 -33 -1 -58 -10 -31 -12 -41 -20 -32 -26 7
-4 20 -4 30 1 9 5 19 7 22 3 4 -3 13 0 22 7 10 8 15 9 15 1 0 -7 8 -8 26 0 15
5 29 7 31 5 3 -3 -15 -10 -39 -16 -23 -7 -55 -16 -70 -21 -17 -5 -30 -4 -34 2
-3 6 -11 3 -18 -7 -15 -20 -66 -12 -66 11 0 8 -4 15 -10 15 -16 0 -12 -22 7
-35 13 -10 -7 -14 -111 -25 -133 -13 -285 -9 -405 11 -62 11 -112 28 -83 29 6
0 12 8 12 19 0 13 -10 20 -32 25 -17 3 -29 8 -27 10 2 2 54 -5 114 -15 232
-38 412 -35 600 9 100 24 102 25 111 10z"/>
<path d="M4374 4159 c-2 -4 -1 -9 3 -11 15 -8 36 -3 40 9 5 13 -35 14 -43 2z"/>
<path d="M5990 6667 c-36 -60 -139 -158 -224 -215 l-75 -50 92 -6 c238 -15
212 -22 231 64 16 75 20 186 8 227 -6 19 -9 17 -32 -20z m25 -77 c-2 -3 -6
-36 -9 -73 -4 -37 -11 -79 -16 -93 -9 -24 -14 -25 -73 -22 -63 2 -63 2 -49 63
12 51 22 69 75 125 62 65 62 65 69 35 3 -16 5 -32 3 -35z"/>
<path d="M4566 6584 c9 -78 23 -114 21 -54 -1 25 3 45 8 45 11 0 11 -7 2 -84
-6 -53 -6 -53 36 -89 88 -76 216 -212 320 -339 102 -125 214 -230 318 -301 61
-41 155 -82 188 -82 65 0 258 175 353 320 58 89 111 181 106 185 -2 1 -32 8
-68 15 -36 7 -87 18 -115 25 -27 8 -131 23 -230 35 -422 49 -496 65 -640 137
-67 34 -197 135 -270 210 -36 37 -36 37 -29 -23z m1224 -388 c0 -2 -7 -6 -15
-10 -8 -3 -15 -1 -15 4 0 6 7 10 15 10 8 0 15 -2 15 -4z m-91 -75 c-31 -57
-127 -168 -140 -164 -4 1 -4 -8 -1 -20 5 -20 4 -20 -11 -8 -15 12 -17 11 -17
-2 0 -11 -5 -14 -17 -10 -12 5 -14 3 -8 -7 5 -9 4 -11 -4 -6 -6 4 -23 -2 -37
-13 -15 -12 -33 -21 -40 -21 -8 0 -14 -7 -14 -15 0 -19 10 -19 37 0 18 13 23
13 32 1 10 -12 8 -13 -7 -9 -12 3 -30 -5 -47 -21 -25 -24 -27 -28 -13 -44 27
-31 31 -42 12 -35 -12 5 -15 3 -9 -6 6 -10 2 -11 -16 -6 -18 5 -20 4 -9 -4 8
-5 27 -7 42 -4 17 3 28 1 28 -5 0 -6 7 -9 15 -6 20 8 19 22 -1 20 -9 0 -18 5
-20 12 -1 7 0 8 3 2 8 -17 23 -11 16 6 -4 12 2 10 20 -7 26 -22 36 -36 18 -25
-5 3 -12 -1 -15 -10 -12 -31 -105 -8 -199 50 -37 22 -37 24 -13 24 14 0 26 -4
26 -8 0 -4 6 -10 13 -13 9 -3 11 6 9 34 -5 44 -9 47 -28 22 -11 -15 -13 -15
-14 -3 0 18 37 44 42 29 2 -6 12 -11 21 -13 10 -1 22 -9 27 -16 12 -19 23 -6
16 18 -5 13 -14 18 -31 16 -14 -1 -25 1 -25 6 0 14 -33 21 -42 8 -6 -10 -8 -9
-8 2 0 9 -20 26 -45 40 -24 13 -43 25 -41 27 1 1 34 -11 72 -27 83 -36 122
-37 183 -7 61 30 173 136 224 214 23 34 43 63 45 63 2 0 -11 -27 -29 -59z
m-109 -192 c0 -6 -4 -7 -10 -4 -5 3 -10 11 -10 16 0 6 5 7 10 4 6 -3 10 -11
10 -16z m-25 -100 c11 -17 -1 -21 -15 -4 -8 9 -8 15 -2 15 6 0 14 -5 17 -11z
m-105 -33 c0 -8 -4 -18 -10 -21 -5 -3 -10 3 -10 14 0 12 5 21 10 21 6 0 10 -6
10 -14z m140 -11 c0 -1 -11 -12 -26 -26 -18 -17 -23 -19 -18 -6 3 10 1 17 -5
17 -6 0 -11 -5 -11 -12 0 -6 -2 -9 -5 -6 -13 13 8 33 35 34 17 1 30 0 30 -1z"/>
<path d="M5351 5768 c-1 -16 4 -28 9 -28 12 0 12 8 0 35 -8 18 -9 17 -9 -7z"/>
<path d="M5385 5780 c-4 -6 -2 -17 4 -23 15 -15 25 -2 13 19 -7 12 -11 13 -17
4z"/>
<path d="M4576 6299 c-3 -8 -12 -41 -21 -74 -9 -33 -28 -80 -41 -104 -13 -24
-23 -45 -22 -45 2 -1 34 -9 72 -19 89 -22 109 -12 126 65 20 91 -14 166 -82
183 -19 5 -29 3 -32 -6z"/>
<path d="M1957 6088 c-15 -54 -3 -129 64 -398 74 -302 96 -356 152 -391 46
-28 74 -24 113 15 32 32 34 38 34 99 0 128 -71 454 -124 567 -25 55 -25 55
-19 -42 4 -64 2 -98 -4 -98 -25 0 -115 114 -190 238 -20 33 -20 33 -26 10z"/>
<path d="M6555 6085 c-20 -53 -85 -194 -152 -330 -40 -82 -73 -155 -73 -162 0
-7 -7 -13 -15 -13 -11 0 -15 12 -15 47 0 28 -4 43 -9 37 -17 -17 -72 -207 -73
-250 -2 -105 93 -148 163 -73 32 35 57 106 134 392 63 237 70 276 57 332 -8
33 -11 37 -17 20z m-89 -340 c-3 -8 -10 -15 -15 -15 -7 0 -6 10 1 26 12 26 25
16 14 -11z m-36 -4 c-7 -14 -7 -21 0 -21 5 0 10 -7 10 -15 0 -8 -8 -15 -18
-15 -11 0 -26 -15 -37 -37 -19 -39 -21 -45 -23 -76 -1 -10 -7 -15 -12 -12 -17
11 18 107 68 183 18 28 28 22 12 -7z m10 -110 c0 -11 -4 -9 -15 5 -14 18 -14
17 -15 -13 0 -35 -10 -42 -29 -19 -7 9 -8 17 -2 20 5 3 11 3 14 -1 2 -5 2 -2
1 5 -2 7 2 21 8 32 11 17 13 17 25 2 7 -9 13 -23 13 -31z m24 -20 c-4 -17 -9
-30 -11 -27 -3 2 -2 19 2 36 4 17 9 30 11 27 2 -2 1 -18 -2 -36z m-15 -75 c-7
-14 -16 -26 -21 -26 -5 0 -1 14 7 31 20 37 31 33 14 -5z m-37 2 c-7 -7 -12 -8
-12 -2 0 14 12 26 19 19 2 -3 -1 -11 -7 -17z m-52 -9 c0 -6 -4 -7 -10 -4 -5 3
-10 11 -10 16 0 6 5 7 10 4 6 -3 10 -11 10 -16z m40 -44 c-7 -9 -8 -15 -2 -15
6 0 12 6 15 13 2 6 8 9 12 5 15 -15 -55 -158 -78 -158 -4 0 -5 5 -2 10 3 6 0
10 -7 11 -7 0 -3 4 10 9 20 8 21 12 10 30 -11 17 -10 22 6 37 15 14 19 15 23
4 4 -11 7 -11 13 0 5 8 2 17 -7 24 -11 9 -14 20 -9 40 5 20 10 25 18 17 8 -8
8 -15 -2 -27z m-90 -142 c0 -3 -7 -3 -15 1 -8 3 -15 1 -15 -4 0 -6 -5 -10 -11
-10 -8 0 -8 4 1 14 10 13 40 12 40 -1z"/>
<path d="M3497 5958 c-26 -35 -92 -151 -148 -258 -56 -107 -114 -218 -130
-246 -28 -52 -28 -52 34 -69 114 -31 141 -34 263 -35 78 0 162 7 235 20 153
27 252 26 326 -2 72 -27 133 -26 197 1 54 24 154 39 231 35 277 -13 516 -15
567 -5 62 13 102 48 91 79 -15 39 -207 350 -277 446 l-49 68 -18 -85 c-46
-229 -158 -337 -349 -337 -151 0 -250 40 -371 148 -156 140 -185 156 -311 168
-40 3 -94 15 -121 26 -44 19 -107 77 -107 98 0 23 -19 6 -63 -52z m-146 -309
c-5 -13 -10 -19 -10 -12 -1 15 10 45 15 40 3 -2 0 -15 -5 -28z m1387 9 c-7
-13 -11 -32 -9 -43 3 -20 2 -20 -12 -1 -12 17 -12 22 6 43 26 29 31 29 15 1z
m-54 -53 c-4 -8 -12 -15 -19 -15 -7 0 -18 -7 -25 -15 -7 -8 -17 -15 -22 -15
-11 0 7 19 42 42 31 21 31 21 24 3z m398 -45 c-18 -29 -15 -36 8 -15 11 10 20
13 20 7 0 -26 -60 -37 -68 -13 -3 8 0 11 6 7 5 -3 13 1 16 10 3 8 2 12 -4 9
-6 -3 -10 1 -10 10 0 10 5 13 12 9 8 -5 9 -1 4 12 -7 18 -6 18 11 1 15 -14 16
-21 5 -37z m-482 -11 c0 -6 -4 -7 -10 -4 -5 3 -10 11 -10 16 0 6 5 7 10 4 6
-3 10 -11 10 -16z m114 -26 c-25 -18 -33 -16 -27 7 6 23 19 26 26 8 3 -7 6 -2
7 12 2 20 3 21 7 6 3 -12 -2 -25 -13 -33z m251 36 c11 -16 1 -19 -13 -3 -7 8
-8 14 -3 14 5 0 13 -5 16 -11z m-401 -11 c3 3 6 0 6 -6 0 -7 -6 -12 -12 -13
-7 0 -3 -4 10 -9 12 -5 22 -16 22 -25 0 -20 -10 -19 -26 3 -12 16 -13 15 -14
-5 0 -12 -3 -29 -7 -39 -5 -13 -3 -15 8 -9 12 8 12 6 0 -8 -18 -22 -19 -20
-37 44 -20 76 -19 79 15 69 16 -4 32 -6 35 -2z m333 -12 c-5 -16 -27 -19 -27
-3 0 7 7 14 15 14 9 0 14 -5 12 -11z m127 -1 c3 -8 1 -15 -4 -15 -6 0 -10 7
-10 15 0 8 2 15 4 15 2 0 6 -7 10 -15z m106 -26 c0 -6 -4 -7 -10 -4 -5 3 -10
11 -10 16 0 6 5 7 10 4 6 -3 10 -11 10 -16z m-120 -20 c0 -5 -4 -9 -10 -9 -5
0 -10 7 -10 16 0 8 5 12 10 9 6 -3 10 -10 10 -16z m-1709 -50 c-5 -26 -9 -34
-10 -19 -1 27 9 73 15 67 2 -2 0 -23 -5 -48z m1534 -18 c-3 -6 -11 -11 -16
-11 -5 0 -4 6 3 14 14 16 24 13 13 -3z m55 9 c0 -5 -8 -10 -17 -10 -15 0 -16
2 -3 10 19 12 20 12 20 0z"/>
<path d="M4520 5525 c0 -8 2 -15 4 -15 2 0 6 7 10 15 3 8 1 15 -4 15 -6 0 -10
-7 -10 -15z"/>
<path d="M5812 5458 c-6 -18 -40 -130 -76 -248 -140 -462 -192 -579 -356 -792
-31 -40 -13 -35 73 23 105 70 169 143 222 254 66 138 92 249 124 538 16 138
27 253 26 255 -2 2 -8 -12 -13 -30z m-72 -413 c0 -14 -4 -25 -10 -25 -11 0
-14 33 -3 43 11 11 13 8 13 -18z m12 -56 c-3 -23 -7 -27 -14 -18 -5 9 -7 1 -3
-21 4 -19 1 -49 -5 -65 -7 -17 -13 -37 -15 -45 -7 -34 -25 -70 -35 -70 -5 0
-10 -7 -10 -16 0 -8 -3 -13 -7 -11 -5 3 -19 -19 -33 -49 -14 -29 -29 -54 -33
-54 -5 0 -7 3 -5 8 46 91 103 252 114 323 6 34 13 41 45 48 3 0 3 -13 1 -30z
m-168 -383 c-3 -9 -10 -16 -15 -16 -6 0 -5 9 1 21 13 24 24 20 14 -5z"/>
<path d="M5610 5423 c-43 -12 -70 -13 -125 -6 -38 6 -72 9 -74 7 -2 -2 13 -33
34 -69 20 -36 35 -71 32 -78 -2 -7 -32 15 -69 51 -35 34 -67 62 -71 62 -3 0
-9 -15 -12 -32 -4 -18 -23 -63 -41 -100 -66 -132 -78 -245 -43 -401 31 -137
49 -255 49 -321 0 -59 0 -59 26 -35 50 46 184 272 170 286 -2 3 -17 -21 -32
-54 -40 -84 -95 -164 -108 -156 -6 3 -8 3 -4 -1 4 -5 2 -13 -3 -20 -5 -6 -15
-19 -22 -29 -10 -14 -12 -8 -11 40 1 40 5 57 13 55 7 -1 10 1 7 6 -3 5 13 35
35 68 67 97 177 329 230 484 27 80 47 132 44 115 -4 -16 -11 -55 -16 -85 -11
-67 -79 -287 -109 -353 -12 -27 -20 -51 -17 -53 8 -8 88 195 108 274 11 43 24
91 29 107 25 77 57 255 46 254 -6 -1 -36 -8 -66 -16z"/>
<path d="M6078 4483 c-15 -4 -35 -40 -26 -47 8 -7 118 -14 118 -8 -1 18 -58
66 -72 61 -2 -1 -11 -3 -20 -6z"/>
<path d="M6072 4364 c-12 -8 -22 -24 -22 -36 0 -18 4 -20 31 -14 18 3 45 0 66
-9 45 -19 43 -19 43 10 0 54 -69 83 -118 49z"/>
<path d="M6064 4225 c-34 -34 -26 -49 31 -57 26 -4 53 -12 58 -17 22 -22 37
-12 37 24 0 71 -76 100 -126 50z m46 -31 c0 -8 -4 -12 -10 -9 -5 3 -10 10 -10
16 0 5 5 9 10 9 6 0 10 -7 10 -16z"/>
<path d="M3064 4123 c13 -45 117 -470 140 -573 46 -208 85 -500 67 -500 -4 0
-13 17 -19 38 -7 20 -23 60 -37 87 -25 50 -25 50 -19 -50 3 -55 7 -126 9 -157
1 -37 8 -65 18 -76 26 -29 47 -88 47 -136 0 -35 5 -47 24 -59 30 -20 66 -93
66 -135 0 -27 6 -35 39 -52 45 -23 80 -63 88 -101 4 -22 12 -29 40 -34 45 -8
97 -42 117 -76 14 -24 21 -27 74 -26 59 0 91 -11 128 -44 19 -18 22 -18 63 -2
37 14 49 15 89 4 26 -7 54 -19 63 -27 15 -13 21 -12 54 10 48 33 91 40 140 23
38 -13 40 -13 64 16 36 43 99 68 152 62 41 -5 45 -4 64 27 28 45 78 71 137 72
36 1 50 5 54 18 16 51 96 108 152 108 26 0 31 5 36 33 10 53 68 104 139 121
43 10 52 46 31 128 -9 37 -18 68 -21 68 -3 0 -57 -34 -121 -77 -64 -42 -124
-78 -133 -80 -20 -6 -43 47 -65 152 -12 57 -18 147 -22 313 -4 213 1 292 25
430 6 39 -6 41 -28 4 -66 -110 -119 -194 -119 -186 0 4 16 56 36 113 44 126
93 209 115 195 4 -2 10 4 13 13 2 10 2 0 0 -22 -4 -32 -3 -37 6 -25 9 12 10 8
5 -20 -4 -19 -8 -44 -9 -55 -1 -11 -4 -25 -8 -30 -9 -15 -23 -260 -22 -400 1
-166 30 -416 51 -434 3 -3 3 8 0 25 -3 17 -11 109 -18 205 -12 178 -8 400 11
564 10 85 45 286 56 323 14 45 -107 -106 -148 -185 -52 -100 -103 -246 -94
-269 3 -9 0 -35 -9 -59 -24 -73 -36 -238 -26 -365 5 -63 13 -123 17 -134 5
-13 3 -17 -6 -14 -18 6 -83 194 -104 305 -31 157 -38 183 -45 183 -10 0 -101
-59 -128 -83 -12 -11 -20 -27 -18 -38 2 -12 0 -17 -7 -13 -6 4 -8 -1 -3 -15 4
-15 3 -20 -7 -16 -7 3 -19 1 -27 -4 -10 -7 -11 -13 -2 -30 9 -15 9 -26 1 -39
-10 -15 -10 -14 -5 5 3 13 0 27 -9 35 -12 11 -10 18 22 51 20 20 31 37 25 37
-18 0 -136 -133 -172 -194 -19 -32 -59 -114 -88 -183 -58 -134 -110 -219 -181
-295 -45 -48 -129 -108 -151 -108 -15 0 -10 40 24 185 105 446 148 1052 84
1187 -16 35 -246 197 -281 198 -3 0 9 -37 28 -81 42 -99 70 -203 85 -314 16
-124 10 -140 -25 -58 -67 160 -187 326 -298 414 -47 37 -211 139 -224 139 -3
0 -3 -8 0 -17z m675 -253 c31 -27 35 -34 35 -85 0 -30 4 -55 9 -55 11 0 4
-269 -7 -294 -7 -14 -6 -17 2 -12 7 4 10 0 8 -11 -4 -18 -14 -119 -22 -208 -2
-27 -8 -75 -14 -105 -6 -30 -15 -100 -20 -155 -5 -55 -14 -116 -20 -135 -9
-32 -9 -31 -5 15 63 626 58 885 -19 1058 -16 36 -16 38 1 28 10 -6 33 -24 52
-41z m566 -609 c-3 -6 3 -25 14 -44 13 -24 16 -38 9 -48 -8 -11 -9 -10 -4 3 6
19 -8 33 -24 23 -8 -5 -7 -12 2 -23 11 -13 11 -14 -2 -7 -8 5 -26 8 -40 7 -17
-1 -20 1 -10 6 32 15 60 46 48 53 -11 7 -5 39 7 39 4 0 4 -4 0 -9z m74 -17
c-13 -15 -34 -19 -25 -5 4 5 0 11 -6 14 -7 2 -1 4 15 4 22 0 25 -2 16 -13z m8
-41 c-4 -3 -1 -13 5 -22 10 -13 10 -14 -2 -3 -16 14 -34 16 -25 3 3 -5 1 -12
-4 -15 -5 -4 -8 1 -7 10 1 8 9 20 17 25 17 10 25 12 16 2z m-101 -55 c3 -4 -1
-5 -10 -4 -8 1 -18 5 -22 8 -3 4 1 5 10 4 8 -1 18 -5 22 -8z m-100 -10 c4 -7
3 -9 -1 -5 -5 4 -15 -3 -22 -15 -8 -15 -12 -18 -13 -7 0 8 5 20 12 27 15 15
15 15 24 0z m253 0 c-1 -7 -1 -20 0 -28 1 -12 3 -12 10 -2 7 11 9 11 14 0 4
-11 -14 -21 -66 -38 -87 -27 -134 -50 -209 -101 -32 -22 -58 -36 -58 -31 0 4
10 14 21 22 12 8 34 25 48 38 25 21 25 23 8 36 -10 8 -14 17 -9 20 6 3 12 -1
16 -9 8 -22 42 -18 67 8 12 12 19 16 14 9 -6 -11 -3 -11 14 0 12 7 21 20 22
28 0 10 2 11 6 3 6 -16 33 -17 33 -2 0 5 -6 7 -12 3 -10 -6 -10 -5 -1 8 7 8
10 17 7 21 -3 3 8 3 24 1 18 -3 33 0 38 7 5 9 2 10 -10 6 -10 -4 -15 -3 -11 3
9 14 36 12 34 -2z m-145 -20 c-3 -4 -12 -8 -20 -8 -8 0 -13 4 -10 8 3 5 12 9
20 9 8 0 13 -4 10 -9z m-42 -40 c-10 -10 -15 -10 -22 2 -6 9 -5 17 3 22 18 11
33 -10 19 -24z m-72 2 c7 11 9 4 8 -23 -1 -21 -5 -40 -10 -43 -4 -3 -6 -9 -3
-14 3 -4 -3 -7 -12 -5 -10 2 -21 4 -24 4 -9 1 -4 55 6 72 7 12 6 12 -7 1 -9
-8 -14 -20 -11 -28 3 -8 1 -14 -4 -14 -20 0 -22 14 -6 41 16 27 18 28 36 12
16 -15 19 -15 27 -3z m767 -302 c0 -13 -1 -17 -4 -10 -3 6 -10 9 -16 5 -7 -4
-6 1 2 10 17 21 17 21 18 -5z m-97 -73 c14 -19 14 -19 -2 -6 -10 7 -18 18 -18
24 0 6 1 8 3 6 1 -2 9 -13 17 -24z"/>
<path d="M3736 3798 c2 -18 8 -53 13 -78 10 -45 10 -45 4 10 -3 30 -5 65 -4
78 0 12 -3 22 -8 22 -4 0 -7 -15 -5 -32z"/>
<path d="M4374 3109 c-4 -7 -3 -9 4 -5 5 3 13 0 15 -6 4 -9 6 -10 6 -1 1 17
-16 25 -25 12z"/>
<path d="M4151 3026 c-8 -10 -9 -16 -1 -21 5 -3 13 1 16 10 9 22 -1 29 -15 11z"/>
<path d="M6042 4084 c-29 -20 -28 -52 1 -63 126 -46 137 -45 137 16 0 39 -30
63 -80 63 -20 0 -46 -7 -58 -16z"/>
<path d="M5999 3929 c-27 -27 -21 -61 14 -70 16 -4 27 -3 27 2 0 6 5 7 10 4 6
-4 8 -11 5 -16 -3 -5 2 -6 11 -2 11 4 15 3 10 -5 -3 -6 3 -16 15 -22 17 -9 24
-8 40 6 41 37 10 119 -42 112 -16 -3 -29 -1 -29 4 0 16 -40 8 -61 -13z"/>
<path d="M5955 3788 c-31 -18 -45 -41 -42 -68 1 -20 14 -31 61 -53 69 -33 98
-30 115 11 22 52 -18 109 -80 118 -19 2 -43 -1 -54 -8z"/>
<path d="M3000 3721 c-18 -34 -12 -68 16 -90 30 -23 59 -28 52 -8 -3 6 -13 36
-22 65 -19 56 -29 63 -46 33z"/>
<path d="M5873 3620 c-12 -5 -27 -19 -33 -31 -19 -35 2 -67 65 -95 51 -24 58
-25 79 -10 46 29 39 98 -11 124 -30 16 -77 21 -100 12z m89 -122 c-11 -11 -52
-2 -52 11 0 4 14 6 31 3 20 -3 27 -8 21 -14z"/>
<path d="M2996 3559 c-45 -12 -66 -38 -66 -80 0 -64 41 -96 117 -91 44 4 67
86 38 141 -16 31 -46 41 -89 30z"/>
<path d="M5782 3454 c-34 -14 -48 -48 -38 -89 4 -17 22 -33 57 -51 45 -22 55
-24 81 -13 16 6 33 20 38 30 40 74 -54 159 -138 123z"/>
<path d="M2973 3343 c-12 -2 -34 -18 -49 -36 -32 -38 -28 -88 10 -126 35 -35
120 -36 147 -2 58 71 -15 181 -108 164z"/>
<path d="M5680 3293 c-35 -13 -60 -47 -60 -80 0 -28 7 -38 48 -68 26 -19 59
-35 73 -35 37 0 69 38 69 83 0 63 -75 122 -130 100z m112 -105 c-6 -6 -7 0 -4
19 5 21 7 23 10 9 2 -10 0 -22 -6 -28z"/>
<path d="M5524 3115 c-33 -22 -49 -69 -35 -102 15 -36 74 -76 112 -76 44 0 83
42 83 89 0 29 -7 43 -37 70 -41 38 -87 45 -123 19z m134 -130 c-7 -7 -29 -17
-48 -24 -32 -10 -33 -9 -16 4 11 8 23 15 27 15 4 0 16 21 26 48 18 47 18 47
21 8 2 -23 -2 -44 -10 -51z"/>
<path d="M2984 3106 c-41 -18 -64 -52 -64 -94 0 -80 110 -114 171 -53 48 48
34 112 -31 146 -35 18 -36 18 -76 1z m75 -151 c-10 -9 -79 -14 -79 -5 0 5 17
10 38 12 38 3 49 1 41 -7z"/>
<path d="M5359 2931 c-42 -42 -40 -92 5 -137 98 -98 227 30 132 130 -44 48
-94 50 -137 7z"/>
<path d="M3024 2871 c-75 -46 -61 -160 23 -185 35 -11 111 27 124 61 37 97
-59 178 -147 124z"/>
<path d="M5191 2754 c-37 -31 -41 -73 -11 -122 25 -41 58 -56 104 -48 73 14
97 90 51 159 -23 33 -30 37 -70 37 -32 0 -51 -7 -74 -26z"/>
<path d="M3104 2636 c-28 -28 -34 -42 -34 -75 0 -59 35 -91 100 -91 67 0 100
32 100 95 0 38 -5 52 -29 76 -42 42 -92 40 -137 -5z"/>
<path d="M5044 2610 c-31 -12 -64 -59 -64 -89 0 -37 35 -90 67 -102 36 -13 89
-3 114 22 12 12 19 33 19 60 0 86 -65 138 -136 109z m36 -170 c0 -5 -6 -10
-14 -10 -8 0 -18 5 -21 10 -3 6 3 10 14 10 12 0 21 -4 21 -10z"/>
<path d="M3274 2461 c-36 -16 -64 -60 -64 -103 0 -53 43 -98 94 -98 71 0 106
35 106 105 0 65 -78 120 -136 96z"/>
<path d="M4824 2445 c-80 -55 -32 -185 68 -185 94 0 129 109 58 180 -24 24
-95 27 -126 5z"/>
<path d="M4601 2309 c-23 -22 -31 -40 -31 -65 0 -93 80 -141 157 -95 55 34 56
120 1 166 -42 36 -88 34 -127 -6z"/>
<path d="M3431 2274 c-56 -46 -50 -138 10 -169 38 -20 92 -19 118 3 25 21 40
86 29 129 -17 65 -100 85 -157 37z"/>
<path d="M4404 2230 c-32 -13 -64 -59 -64 -92 0 -104 120 -154 184 -77 69 82
-21 209 -120 169z m6 -170 c0 -5 -4 -10 -10 -10 -5 0 -10 5 -10 10 0 6 5 10
10 10 6 0 10 -4 10 -10z m70 6 c0 -2 -9 -6 -20 -9 -11 -3 -18 -1 -14 4 5 9 34
13 34 5z"/>
<path d="M3648 2170 c-28 -28 -30 -35 -26 -82 7 -63 40 -98 94 -98 50 0 69 13
88 60 23 59 20 87 -13 121 -42 41 -101 41 -143 -1z m73 -149 c-8 -5 -20 -7
-28 -4 -21 8 -15 13 15 13 20 0 23 -3 13 -9z"/>
<path d="M4139 2142 c-28 -25 -31 -34 -31 -77 1 -38 7 -54 27 -74 36 -36 102
-36 140 -1 24 23 27 30 23 84 -4 47 -9 62 -29 77 -37 28 -92 25 -130 -9z"/>
<path d="M3889 2131 c-40 -40 -41 -105 -3 -150 22 -27 33 -31 73 -31 62 0 89
27 98 98 5 47 3 53 -25 81 -42 43 -101 44 -143 2z"/>
</g>
</svg>
